/* XPM */
static char *result[] = {
/* columns rows colors chars-per-pixel */
"64 64 166 2 ",
"   c #020203",
".  c #0A0605",
"X  c #0C0906",
"o  c #060609",
"O  c #090709",
"+  c #07080B",
"@  c #0B0B0B",
"#  c #130C06",
"$  c #180F06",
"%  c #130D0A",
"&  c #180F0A",
"*  c #1D1207",
"=  c #1C120A",
"-  c #15100C",
";  c #0D0E11",
":  c #0E1013",
">  c #0F1118",
",  c #131314",
"<  c #1A1513",
"1  c #1E1917",
"2  c #151619",
"3  c #16191B",
"4  c #1B1B1C",
"5  c #221507",
"6  c #271806",
"7  c #2D1A07",
"8  c #23160A",
"9  c #25180D",
"0  c #2B1A0B",
"q  c #311E0B",
"w  c #201E1C",
"e  c #251C14",
"r  c #35210C",
"t  c #3B240C",
"y  c #29201A",
"u  c #312418",
"i  c #392612",
"p  c #1C1D21",
"a  c #252525",
"s  c #2A2B2B",
"d  c #2D2825",
"f  c #302C29",
"g  c #352C22",
"h  c #2F302F",
"j  c #333333",
"k  c #383633",
"l  c #383739",
"z  c #3C3C3C",
"x  c #41270D",
"c  c #44290D",
"v  c #4A2D0E",
"b  c #4F300F",
"n  c #53320E",
"m  c #5A360E",
"M  c #5E390E",
"N  c #462C10",
"B  c #492D10",
"V  c #4F3110",
"C  c #523211",
"Z  c #5A3710",
"A  c #5F3A11",
"S  c #633B0E",
"D  c #693F0E",
"F  c #633D11",
"G  c #443728",
"H  c #483D32",
"J  c #6C410E",
"K  c #73450F",
"L  c #79470F",
"P  c #7D4B0F",
"I  c #6D4212",
"U  c #734612",
"Y  c #754812",
"T  c #7B4A13",
"R  c #7D501D",
"E  c #7F5E37",
"W  c #434344",
"Q  c #484747",
"!  c #4C4C4C",
"~  c #535353",
"^  c #585659",
"/  c #5B5B5B",
"(  c #5B5550",
")  c #705D48",
"_  c #766049",
"`  c #766A5E",
"'  c #636363",
"]  c #6C6C6C",
"[  c #706A66",
"{  c #6F7071",
"}  c #767575",
"|  c #7B7B7B",
" . c #757578",
".. c #824F13",
"X. c #865113",
"o. c #8B5414",
"O. c #8A591E",
"+. c #905615",
"@. c #945A15",
"#. c #9A5D15",
"$. c #9C5E18",
"%. c #9E6017",
"&. c #9C621E",
"*. c #A26115",
"=. c #A86617",
"-. c #AD6917",
";. c #A56419",
":. c #AD6918",
">. c #AB671A",
",. c #B36C16",
"<. c #B86E17",
"1. c #B66E19",
"2. c #B96F1A",
"3. c #BC7119",
"4. c #BB7117",
"5. c #885B26",
"6. c #915F24",
"7. c #8F6634",
"8. c #C67817",
"9. c #CA7817",
"0. c #C4761A",
"q. c #C6781A",
"w. c #CC7B1A",
"e. c #D27E1A",
"r. c #847564",
"t. c #887F76",
"y. c #D6801C",
"u. c #DC851B",
"i. c #E2871C",
"p. c #E58A1C",
"a. c #EB8D1D",
"s. c #F08F1D",
"d. c #EF911E",
"f. c #F5931D",
"g. c #FA951D",
"h. c #FD981E",
"j. c #FE9820",
"k. c #838383",
"l. c #8B8B8B",
"z. c #918E8B",
"x. c #8E8F90",
"c. c gray58",
"v. c #9B9B9B",
"b. c #A29F9F",
"n. c #A3A19F",
"m. c #A4A4A5",
"M. c #ACACAC",
"N. c #AEAFB0",
"B. c #B3B3B3",
"V. c #BABABA",
"C. c #BFBFC0",
"Z. c #BFC0C1",
"A. c #C3C4C4",
"S. c #CBCCCC",
"D. c #CDCED0",
"F. c #CFD0D2",
"G. c #D3D3D3",
"H. c #DDDDDD",
"J. c #E2D7C7",
"K. c #E4E4E3",
"L. c #EBEBEB",
"P. c #F0F0EF",
"I. c #F4F4F4",
"U. c #F7F8F8",
"Y. c #FFFFFF",
"T. c None",
/* pixels */
"T.T.T.T.T.T.T.T.T.T.T.T.T.T.T.T.T.T.T.T.T.T.T.T.T.T.T.T.T.T.T.T.T.T.T.T.T.T.T.T.T.T.T.T.p O @ T.T.T.T.T.T.T.T.T.T.T.T.T.T.T.T.T.",
"T.T.T.T.T.T.T.T.T.T.T.T.T.T.T.T.T.T.T.T.T.T.T.T.T.T.T.T.T.T.T.T.T.T.T.T.T.T.T.T.T.T.T.3       o T.T.T.T.T.T.T.T.T.T.T.T.T.T.T.T.",
"T.T.T.T.T.T.T.T.T.T.T.T.T.T.T.T.T.T.T.T.T.T.T.T.T.T.T.T.T.T.T.T.T.T.T.T.T.T.T.T.T.T.T.          @ T.T.T.T.T.T.T.T.T.T.T.T.T.T.T.",
"T.T.T.T.T.T.T.T.T.T.T.T.T.T.T.T.T.T.T.T.T.T.T.T.T.T.T.T.T.T.T.T.T.T.T.T.T.T.T.T.T.T.o           o T.T.T.T.T.T.T.T.T.T.T.T.T.T.T.",
"T.T.T.T.T.T.T.T.T.T.T.T.T.T.T.T.T.T.T.T.T.T.T.T.T.T.T.T.T.T.T.T.T.T.T.T.T.T.T.T.T.T.@             @ e : 2 T.T.T.T.T.T.T.T.T.T.T.",
"T.T.T.T.T.T.T.T.T.T.T.T.T.T.T.T.T.T.T.T.T.T.T.T.T.T.T.T.T.T.T.T.T.T.T.T.T.T.T.T.T.2 o # c ..%.x   5 :.A o o ; 3 T.T.T.T.T.T.T.T.",
"T.T.T.T.T.T.T.T.T.T.T.T.T.T.T.T.T.T.T.T.T.T.T.T.T.T.T.T.T.T.T.T.T.T.T.T.T.T.T.p @   v <.a.h.g.y.t 6 p.u.q   q r ; T.T.T.T.T.T.T.",
"T.T.T.T.T.T.T.T.T.T.T.T.T.T.T.T.T.T.T.T.T.T.T.T.T.T.T.T.T.T.T.T.T.T.T.T.T.T.4       7 -.f.f.g.g.w.X.p.g.o.8 8.u.C 4 T.T.T.T.T.T.",
"T.T.T.T.T.T.T.T.T.T.T.T.T.T.T.T.T.T.T.T.T.T.T.T.T.T.T.T.T.T.T.T.T.T.T.T.T., 8 C t $   @ ..a.g.f.g.f.f.g.p.2.s.g.e.9 2 T.T.T.T.T.",
"T.T.T.T.T.T.T.T.T.T.T.T.T.T.T.T.T.T.T.T.T.T.T.T.T.T.T.T.T.T.T.T.T.T.T.T.2 = 1.f.a.e.*.U n 8.g.f.f.f.g.f.g.g.g.g.p.7 o : 2 4 T.T.",
"T.T.T.T.T.T.T.T.T.T.T.T.T.T.T.T.T.T.T.T.T.T.T.T.T.T.T.T.T.T.T.T.T.T.T.p o 8 @.e.f.j.g.f.f.f.g.f.f.f.f.g.g.f.g.f.d.r         o 2 ",
"T.T.T.T.T.T.T.T.T.T.T.T.T.T.T.T.T.T.T.T.T.T.T.T.T.T.T.T.T.T.T.T.T.T.T.o       & v $.p.g.g.f.f.f.f.f.f.g.g.f.f.g.f.@.n         , ",
"T.T.T.T.T.T.T.T.T.T.T.T.T.T.T.T.T.T.T.T.T.T.T.T.T.T.T.T.T.T.T.T.T.T.@ q C v t q 6 0 o.f.f.f.f.g.g.f.i.i.f.f.g.f.g.g.#.        ; ",
"T.T.T.T.T.T.T.T.T.T.T.T.T.T.T.T.T.T.T.T.T.T.T.T.T.T.T.T.T.T.T.T.T.o 0 w.f.d.a.p.i.i.a.f.f.f.f.f.g.0.q 0 #.f.f.g.g.g...      @ T.",
"T.T.T.T.T.T.T.T.T.T.T.T.T.T.T.T.T.T.T.T.T.T.T.T.T.T.T.T.T.T.T.T.T.@ o.f.f.f.f.f.g.f.g.f.f.f.g.g.i.q . . X.j.j.0.0.f.M   T.T.T.T.",
"T.T.T.T.T.T.T.T.T.T.T.T.T.T.T.T.T.T.T.T.T.T.T.T.T.T.T.T.T.T.T.T.@ . m S n n n D 2.g.f.g.g.h.g.g.>.% & U p.j.#.& T u.q T.T.T.T.T.",
"T.T.T.T.T.T.T.T.T.T.T.T.T.T.T.T.T.T.T.T.T.T.T.T.T.T.T.T.T.T.T.T.@     # t F o.#.#.O.5.6.&.:.9.p.i.0.e.s.g.<.& x p.=.@ T.T.T.T.T.",
"T.T.T.T.T.T.T.T.T.T.T.T.T.T.T.T.T.T.T.T.T.T.T.T.T.T.T.T.T.T.T.T.+ t @.w.a.w.5.r.b.A.G.D.C.n.t._ 5.-.i.g.g.o.b w.a.v + T.T.T.T.T.",
"T.T.T.T.T.T.T.T.T.T.T.T.T.T.T.T.T.T.T.T.T.T.T.T.T.T.T.T.T.T.T.T.= 0.g.f.;.` S.U.Y.Y.Y.Y.Y.Y.Y.I.S.z.) O.8.a.d.f.Y @ T.T.T.T.T.T.",
"T.T.T.T.T.T.T.T.T.T.T.T.T.T.T.T.T.T.T.T.T.T.T.T.T.T.T.T.T.T.T.T.r p.j.#.[ L.Y.Y.Y.Y.Y.Y.S.k.l.V.K.Y.P.B.` R <.K % T.T.T.T.T.T.T.",
"T.T.T.T.T.T.T.T.T.T.T.T.T.T.T.T.T.T.T.T.T.T.T.T.T.T.T.T.T.T.T.T.r p.8.H H.Y.Y.Y.Y.Y.Y.Y.A.s   @ s { Z.U.U.M.f   O T.T.T.T.T.T.T.",
"T.T.T.T.T.T.T.T.T.T.T.T.T.T.T.T.T.T.T.T.T.T.T.T.T.T.T.T.T.T.T.T.8 u.L  .Y.Y.Y.Y.Y.Y.Y.Y.Y.V.-       , ^ A.U.~   T.T.T.T.T.T.T.T.",
"T.T.T.T.T.T.T.T.T.T.T.T.T.T.T.T.T.T.T.T.T.T.T.T.T.T.T.T.T.T.T.T.@ +.b m.Y.Y.Y.Y.Y.Y.Y.Y.Y.U.~       o a k.V.<   T.T.T.T.T.T.T.T.",
"T.T.T.T.T.T.T.T.T.T.T.T.T.T.T.T.T.T.T.T.T.T.T.T.T.T.T.T.T.T.T.    . @ B.Y.Y.Y.Y.Y.Y.Y.U.U.I.}     f m.L.S.z   , T.T.T.T.T.T.T.T.",
"T.T.T.T.T.T.T.T.T.T.T.T.T.T.T.T.T.T.T.T.T.T.T.T.T.T.T.T.T.T.@ 0 I x @ k.Y.Y.Y.Y.P.m.k.k.} ] a } m.H.L.c.s   o T.T.T.T.T.T.T.T.T.",
"T.T.T.T.T.T.T.T.T.T.T.T.T.T.T.T.T.T.T.T.T.T.T.T.T.T.T.T.T.+ & $.f.d.3.7.J.Y.Y.Y.U.H.K.K.K.S.~ S.B.} j @ o T.T.T.T.T.T.T.T.T.T.T.",
"T.T.T.T.T.T.T.T.T.T.T.T.T.T.T.T.T.T.T.T.T.T.T.T.T.T.T.T.      & v +.u.p.E v.H.U.Y.Y.U.L.S.| 3 3 @     T.T.T.T.T.T.T.T.T.T.T.T.T.",
"T.T.T.T.T.T.T.T.T.T.T.T.T.T.T.T.T.T.T.T.T.T.T.T.T.T.T.o b %.M *     6 C k.l.z ! ' ' ! j < o . T.T.T.T.T.T.T.T.T.T.T.T.T.T.T.T.T.",
"T.T.T.T.T.T.T.T.T.T.T.T.T.T.T.T.T.T.T.T.T.T.T.T.T.T.o x u.j.f.9.v     ! P.Y.S.t.4     o T.T.T.T.T.T.T.T.T.T.T.T.T.T.T.T.T.T.T.T.",
"T.T.T.T.T.T.T.T.T.T.T.T.T.T.T.T.T.T.T.T.T.T.T.T.T.T.. U @.T D b 8 5 2 V.Y.Y.Y.Y.'   #   T.T.T.T.T.T.T.T.T.T.T.T.T.T.T.T.T.T.T.T.",
"T.T.T.T.T.T.T.T.T.T.T.T.T.T.T.T.T.T.T.T.T.T.T.T.T.o   . o * 6 x X.:.g A.Y.Y.Y.Y.l.# @.0 @ T.T.T.T.T.T.T.T.T.T.T.T.T.T.T.T.T.T.T.",
"T.T.T.T.T.T.T.T.T.T.T.T.T.T.T.T.T.T.T.T.T.T.T.T.T.    v *.y.p.d.f.u.T a k.L.Y.Y.N.8 $.q   @ @ T.T.T.T.T.T.T.T.T.T.T.T.T.T.T.T.T.",
"T.T.T.T.T.T.T.T.T.T.T.T.T.T.T.T.T.T.T.T.T.T.T.T.o   v i.h.g.w.X.v 0 $     ! G.Y.G.y %   t :.X.r @ @ T.T.T.T.T.T.T.T.T.T.T.T.T.T.",
"T.T.T.T.T.T.T.T.T.T.T.T.T.T.T.T.T.T.T.T.T.T.T.T.    o.h.a.T =   X 0 v S S 6 j V.L.z   t y.j.f.+.#     T.T.T.T.T.T.T.T.T.T.T.T.T.",
"T.T.T.T.T.T.T.T.T.T.T.T.T.T.T.T.T.T.T.T.T.T.T.@ o   T g...o $ D 3.i.f.f.g.e.m w | W 0 9.g.p.T # @ ~ | a . T.T.T.T.T.T.T.T.T.T.T.",
"T.T.T.T.T.T.T.T.T.T.T.T.T.T.T.T.T.T.T.T.T.T.T.o Z I 9 >.r # *.f.g.g.g.f.u.,...=     t w.w.b   a v.I.Y.V.a T.T.T.T.T.T.T.T.T.T.T.",
"T.T.T.T.T.T.T.T.T.T.T.T.T.T.T.T.T.T.T.T.T.T.T.. :.p.B = @ F g.f.f.f.3.M 5       @ 2 o 8 6   z S.Y.Y.Y.Y.c.@ T.T.T.T.T.T.T.T.T.T.",
"T.T.T.T.T.T.T.T.T.T.T.T.T.T.T.T.T.T.T.T.T.T.@ 5 u.g.w.0   ..h.f.f.o.$     s ' v.A.G.l.%   ! H.Y.Y.Y.Y.Y.K.s T.T.T.T.T.T.T.T.T.T.",
"T.T.T.T.T.T.T.T.T.T.T.T.T.T.T.T.T.T.T.T.T.T.+ r w.u.a.:.= C a.g.o..   h c.K.Y.Y.Y.Y.Y./   } Y.Y.Y.Y.Y.Y.S.3 T.T.T.T.T.T.T.T.T.T.",
"T.T.T.T.T.T.T.T.T.T.T.T.T.T.T.T.T.T.T.T.T.T.. . 5 8 7 v 9 o I 0.9   ! H.Y.Y.Y.Y.Y.Y.Y.m.  W I.Y.Y.Y.Y.K.! o T.T.T.T.T.T.T.T.T.T.",
"T.T.T.T.T.T.T.T.T.T.T.T.T.T.T.T.T.T.T.T.T.T.. F o...D n x 5 . 5   2 S.Y.Y.Y.Y.Y.Y.Y.Y.V.@ @ / N.H.K.V.W   ; T.T.T.T.T.T.T.T.T.T.",
"T.T.T.T.T.T.T.T.T.T.T.T.T.T.T.T.T.T.T.T.T.T.= w.h.h.f.f.a.*.k z   : V.Y.Y.Y.Y.Y.Y.Y.Y.v.  o o @ 4 s @     T.T.T.T.T.T.T.T.T.T.T.",
"T.T.T.T.T.T.T.T.T.T.T.T.T.T.T.T.T.T.T.T.T.T.r p.g.f.f.h.h.*.{ F.s   l V.I.Y.Y.Y.Y.Y.S.l   T.T.T.    @ T.T.T.T.T.T.T.T.T.T.T.T.T.",
"T.T.T.T.T.T.T.T.T.T.T.T.T.T.T.T.T.T.T.T.T.T.< I S S D K +.S [ Y.A.Q   % Q k.m.M.c.] a o T.T.T.T.T.T.T.T.T.T.T.T.T.T.T.T.T.T.T.T.",
"T.T.T.T.T.T.T.T.T.T.T.T.T.T.T.T.T.T.T.T.T.T.                ! U.Y.L.b.~ 4 @ @ o       T.T.T.T.T.T.T.T.T.T.T.T.T.T.T.T.T.T.T.T.T.",
"T.T.T.T.T.T.T.T.T.T.T.T.T.T.T.T.T.T.T.T.T.T.o * t n D L ..U G H.Y.Y.Y.U.H.A.M.m.m.^ o T.T.T.T.T.T.T.T.T.T.T.T.T.T.T.T.T.T.T.T.T.",
"T.T.T.T.T.T.T.T.T.T.T.T.T.T.T.T.T.T.T.T.T.T.= 2.s.f.g.g.h.f.D m.Y.Y.Y.Y.Y.Y.Y.Y.Y.S.4                 . . o     T.T.T.T.T.T.T.T.",
"T.T.T.T.T.T.T.T.T.T.T.T.T.T.T.T.T.T.T.T.T.T.9 e.f.s.s.a.i.p.+./ U.Y.Y.Y.Y.Y.Y.Y.Y.U.Q   6 F O 7 I #   ! N.m.l.' j @ T.T.T.T.T.T.",
"T.T.T.T.T.T.T.T.T.T.T.T.T.T.T.T.T.T.T.T.T.T.& I S v r 7 q q q e A.Y.Y.Y.Y.Y.Y.Y.Y.Y.|   7 *.. M d.v   z I.Y.Y.Y.K.l.3 T.T.T.T.T.",
"T.T.T.T.T.T.T.T.T.T.T.T.T.T.T.T.T.T.T.T.T.T.      8 n T *.2.e.-.( A.K.I.Y.Y.Y.Y.Y.Y.m.  X r   K g.X.  s K.Y.Y.Y.Y.Y.~   T.T.T.T.",
"T.T.T.T.T.T.T.T.T.T.T.T.T.T.T.T.T.T.T.T.T.T.@ % o.u.f.h.h.u.,...8 ; a W ' l.M.S.K.U.Z.@     o *.h.#.  a K.Y.Y.Y.Y.Y.!   T.T.T.T.",
"T.T.T.T.T.T.T.T.T.T.T.T.T.T.T.T.T.T.T.T.T.T.o 7 p.f.j.w.I 9 X 8 v U o.D 7   @ 1 s W ! o     9 u.h.X.  z I.Y.Y.Y.Y.V.4 T.T.T.T.T.",
"T.T.T.T.T.T.T.T.T.T.T.T.T.T.T.T.T.T.2 3 ; @   6 u.j.:.9 . x #.e.a.0.F = = b X.B     @ l l 2 6 +.9.x   } Y.Y.Y.I.M.h 4 T.T.T.T.T.",
"T.T.T.T.T.T.T.T.T.: ; @ % e 0 t =   $ K T 8   X 0.y.6 @ ..p.h.g.#.=   B 3.9.N   % ] A.P.I.G.x.l *   2 m.S.M.k.W < 3 T.T.T.T.T.T.",
"T.T.T.T.T.2 < i I T *   = 1.p.d.L   6 u.h.+..   o.X.  I j.g.g.-.%   I a.f.A   @ c.U.Y.Y.Y.Y.Y.K.} o @ 4 2 @ @ @ T.T.T.T.T.T.T.T.",
"T.T.T.< - @ 0 ..q.d.#.= o C X.T v     x M C &   r t O 3.g.s.a.c   v p.g.e.*   ^ U.Y.Y.Y.Y.Y.Y.Y.I.^ o T.T.T.T.T.T.T.T.T.T.T.T.T.",
"T.< F >.0.2.#.U i v B = + + ; + , , @ ; : : ; 2 @ @ X >.g.h.w.$   Y g.g.8.#   l.Y.Y.Y.Y.Y.Y.Y.Y.Y.m.; T.T.T.T.T.T.T.T.T.T.T.T.T.",
"; B d.h.u.#.U F r   + a T.T.T.T.T.T.T.T.T.T.T.T.T.T.T.u T e.<.X   S f.g.u.=   } Y.Y.Y.Y.Y.Y.Y.Y.Y.l.. T.T.T.T.T.T.T.T.T.T.T.T.T.",
"; 0 3.w.r q o.0.q.Y & o @ ; T.T.T.T.T.T.T.T.T.T.T.T.T.T.4 e N o   8 0.h.f.n   s H.Y.Y.Y.Y.Y.Y.Y.A.a @ T.T.T.T.T.T.T.T.T.T.T.T.T.",
"T.; 8 i q w.h.j.y.Z X       + , T.T.T.T.T.T.T.T.T.T.T.T.T.T., ;     x 3.p.*..   / K.Y.Y.Y.Y.L.v.a @ T.T.T.T.T.T.T.T.T.T.T.T.T.T.",
"T.T.2   0 :.a.a.v               @ T.T.T.T.T.T.T.T.T.T.T.T.T.T.T.T.@ + & q v X     z c.M.v.{ j @ @ T.T.T.T.T.T.T.T.T.T.T.T.T.T.T.",
"T.T.T.T.; % N I #                 2 T.T.T.T.T.T.T.T.T.T.T.T.T.T.T.T.T.T.T.+ ; @ +     o @ + @ T.T.T.T.T.T.T.T.T.T.T.T.T.T.T.T.T.",
"T.T.T.T.T.T.; @                 @ T.T.T.T.T.T.T.T.T.T.T.T.T.T.T.T.T.T.T.T.T.T.T.T.T.T.T.T.T.T.T.T.T.T.T.T.T.T.T.T.T.T.T.T.T.T.T.",
"T.T.T.T.T.T.T.T.T., @     o @ 2 T.T.T.T.T.T.T.T.T.T.T.T.T.T.T.T.T.T.T.T.T.T.T.T.T.T.T.T.T.T.T.T.T.T.T.T.T.T.T.T.T.T.T.T.T.T.T.T."
};
