/* XPM */
static char *result[] = {
/* columns rows colors chars-per-pixel */
"64 64 112 2 ",
"   c #000000",
".  c #000609",
"X  c #000A0D",
"o  c #000F15",
"O  c #001B26",
"+  c #001E2B",
"@  c #00212F",
"#  c #002332",
"$  c #002C3F",
"%  c #75480D",
"&  c #7A4B0E",
"*  c #002F42",
"=  c #003347",
"-  c #00364C",
";  c #01384F",
":  c #003B53",
">  c #003F59",
",  c #00415C",
"<  c #004663",
"1  c #004866",
"2  c #004C6B",
"3  c #1B4F64",
"4  c #004F70",
"5  c #005274",
"6  c #00567A",
"7  c #015A7F",
"8  c #0D5F7C",
"9  c #15627A",
"0  c #296E7B",
"q  c #3F6C7F",
"w  c #4B4E4F",
"e  c #4F5B45",
"r  c #4F634F",
"t  c #6C6943",
"y  c #617055",
"u  c #686565",
"i  c gray46",
"p  c gray50",
"a  c #85520F",
"s  c #835414",
"d  c #8E5810",
"f  c #915A10",
"g  c #9F6212",
"h  c #A16211",
"j  c #AE6B14",
"k  c #B26E14",
"l  c #B96E10",
"z  c #B97316",
"x  c #816026",
"c  c #C07716",
"v  c #C57A16",
"b  c #CB7D17",
"n  c #7D8258",
"m  c #6A8064",
"M  c #BD8025",
"N  c #A4823B",
"B  c #D38217",
"V  c #D78519",
"C  c #D9871A",
"Z  c #DE8919",
"A  c #E58E1A",
"S  c #E98F1A",
"D  c #ED921A",
"F  c #F3961B",
"G  c #F99718",
"H  c #F7981C",
"J  c #FB9B1C",
"K  c #005D83",
"L  c #006087",
"P  c #00638C",
"I  c #006691",
"U  c #006A95",
"Y  c #006D9A",
"T  c #00709F",
"R  c #20758C",
"E  c #297F94",
"W  c #0074A4",
"Q  c #0077A9",
"!  c #007AAC",
"~  c #007EB2",
"^  c #0080B5",
"/  c #0085BC",
"(  c #0088BF",
")  c #2E91BA",
"_  c #5E92A7",
"`  c #008BC4",
"'  c #008EC9",
"]  c #0A90C7",
"[  c #0091CD",
"{  c #0096D3",
"}  c #0098D7",
"|  c #0099D8",
" . c #2E97C2",
".. c #3A9DC5",
"X. c #419BC0",
"o. c #4FA3C6",
"O. c #8F8D8D",
"+. c #9F9E9D",
"@. c #A7A7A7",
"#. c #ABAFB0",
"$. c #B3B3B3",
"%. c #8DBBCE",
"&. c #A3B7C0",
"*. c #9FC4D3",
"=. c #B7D1DC",
"-. c #CBCBCB",
";. c #D5D5D5",
":. c #DEE2E4",
">. c #E4E4E4",
",. c #F2F2F2",
"<. c #FEFEFE",
"1. c None",
/* pixels */
"1.1.1.1.1.1.1.1.1.1.1.1.1.1.1.1.1.1.1.1.1.1.1.1.1.1.1.1.1.1.1.1.1.1.1.1.1.1.1.1.;.>.-.1.1.1.1.1.1.1.1.1.1.1.1.1.1.1.1.1.1.1.1.1.",
"1.1.1.1.1.1.1.1.1.1.1.1.1.1.1.1.1.1.1.1.1.1.1.1.1.1.1.1.1.1.1.1.1.1.1.1.1.1.1.>.<.@.i $.$.,.,.,.-.1.1.1.1.1.1.1.1.1.1.1.1.1.1.1.",
"1.1.1.1.1.1.1.1.1.1.1.1.1.1.1.1.1.1.1.1.1.1.1.1.1.1.1.1.1.1.1.1.1.1.1.1.1.1.q >.<.+.u #.-.O.@.<.,.1.1.1.1.1.1.1.1.1.1.1.1.1.1.1.",
"1.1.1.1.1.1.1.1.1.1.1.1.1.1.1.1.1.1.1.1.1.1.1.1.1.1.1.1.1.1.1.1.1.1.1.Y / ' ' ..*.=.%.) _ w O.,.#.3 1.1.1.1.1.1.1.1.1.1.1.1.1.1.",
"1.1.1.1.1.1.1.1.1.1.1.1.1.1.1.1.1.1.1.1.1.1.1.1.1.1.1.1.1.1.1.1.1.1.Y | | | | | { ] { | {  .o...[ ` Y 1.1.1.1.1.1.1.1.1.1.1.1.1.",
"1.1.1.1.1.1.1.1.1.1.1.1.1.1.1.1.1.1.1.1.1.1.1.1.1.1.1.1.1.1.1.1.1.5 ` ! I ~ / ` { | | | | | } } | | } Y < 1.1.1.1.1.1.1.1.1.1.1.",
"1.1.1.1.1.1.1.1.1.1.1.1.1.1.1.1.1.1.1.1.1.1.6 s b b Z C b j 1.1.1.2 [ [ * X o + $ = ; 5 Y ~ ` { | } | } P 1.1.1.1.1.1.1.1.1.1.1.",
"1.1.1.1.1.1.1.1.1.1.1.1.1.1.1.U 5 1.1.1.1.1 Y e V Z J g z H Z & 1.2 { | ,               . o O $ 2 4 Q [ Y 1.1.1.1.1.1.1.1.1.1.1.",
"1.1.1.1.1.1.1.1.1.1.1.1.1.1.1.^ / , < P K U / 0 h j D F H J J c 1.2 [ | U .                     X P { [ 1 1.1.1.1.1.1.1.1.1.1.1.",
"1.1.1.1.1.1.1.1.1.1.1.1.1.1.W | } K ! ^ U ~ U t S V % A J c z D a 1.Q | { :                   . 6 } { I 1.1.1.1.1.1.1.1.1.1.1.1.",
"1.1.1.1.1.1.1.1.1.1.1.1.1.! } | { P ! [ ~ T U R r C Z H J d a D f 1.1 ^ | [ 5 + .         . # P { | ~ 1.1.1.1.1.1.1.1.1.1.1.1.1.",
"1.1.1.1.1.1.1.1.1.1.1.1.K | | | ` ^ ^ U T 9 t y x F F A H F J v 1.1.W W T [ | ' W K 2 2 6 W ' | } ` 2 1.1.1.1.1.1.1.1.1.1.1.1.1.",
"1.1.1.1.1.1.1.1.1.1.1.2 ( | | } } | | } / Y t b l G D j F F b 1.1.L | [ ^ ^ [ ` [ { | | | { ( ~ U W 2 1.1.1.1.1.1.1.1.1.1.1.1.1.",
"1.1.1.1.1.1.1.1.1.1.1.2 } | | | } ] | [ ^ { ' E m n N c z g 1.1.1.~ | ` ~ } { / ~ ~ [ | { ( ` ` [ ` < 1.1.1.1.1.1.1.1.1.1.1.1.1.",
"1.1.1.1.1.1.1.1.1.1.1.U | | | | { Q } | | | | { ! W K L 1.1.1.1.5 { | } Q ` | | } | | | } | | | | { P 1.1.1.1.1.1.1.1.1.1.1.1.1.",
"1.1.1.1.1.1.1.1.1.1.1.~ | | | } } W ! | | | ' 6 1.1.1.1.1.1.1.1.^ | | } { } | | | | } | } } | { [ } L 1.1.1.1.1.1.1.1.1.1.1.1.1.",
"1.1.1.1.1.1.1.1.1.1.1.Y | | | | } W ^ | | [ K 1.1.1.1.1.1.1.1.6 ' } } ^ U { | | | | | | | } } ` Q } K 1.1.1.1.1.1.1.1.1.1.1.1.1.",
"1.1.1.1.1.1.1.1.1.1.1.T | | | | } } | | ` 1 1.1.1.1.1.1.1.1.6 ` | { U ~ / | | | | | } | | | | ` K [ ~ 1.1.1.1.1.1.1.1.1.1.1.1.1.",
"1.1.1.1.1.1.1.1.1.1.1 ' | | | | | | | | [ 2 1.1.1.1.1.1.1.1 ^ | | ~ P W W ^ / ` | | | | | | | ' K ` { K 1.1.1.1.1.1.1.1.1.1.1.1.",
"1.1.1.1.1.1.1.1.1.1.- ` | | | | } | | | | I 1.1.1.1.1.1.5 L ` | | ! U | ` ( Y P W [ | | } | | | ` { | ! 1.1.1.1.1.1.1.1.1.1.1.1.",
"1.1.1.1.1.1.1.1.1.1.6 { | } | | | | } [ [ ^ , 1.1.1.1.U ` | | | | } T W ~ ` ` / I P [ | | | | | } } } | W - 1.1.1.1.1.1.1.1.1.1.",
"1.1.1.1.1.1.1.1.1.1.P | | | | } } | | U 7 [ ` ^ I ( { } } | | | | [ Y W ' { [ [ | ^ P ^ | | | | } } | | { U 1.1.1.1.1.1.1.1.1.1.",
"1.1.1.1.1.1.1.1.1.= Q | | | | | | | | ` Q ( | | | ' ! } } | | | } Y W ( / [ | } | } T Y | | | | | | | | } [ ^ 1.1.1.1.1.1.1.1.1.",
"1.1.1.1.1.1.1.1.1.2 { | } | | | | | | | { ' [ W W Y ` } | | | ( W K W ( ' } | | | | ' K [ | | | | | } | } | | U 1.1.1.1.1.1.1.1.",
"1.1.1.1.1.1.1.1.1.= / ' / } } } } | | } | } W K ^ | | | | | } ( I P P ~ ` } } } | | | ! K ! } [ | | | | } | } } Q , 1.1.1.1.1.1.",
"1.1.1.1.1.1.1.1.1.- / ' 7 ' | | | | | { ( U W } | | | | | | | ^ Y U Q } } } | | | } | | ( ~ Y P Q ` [ | | | } | { ` T 1.1.1.1.1.",
"1.1.1.1.1.1.1.1.1.1.Y } ^ [ | } } } } Y U / | | | | | | | } { W K W | } | | | } | | | | | | [ [ ! W L ! ` } | | } | } U 1.1.1.1.",
"1.1.1.1.1.1.1.1.1.1.< ( } ` [ } } } [ P W | | } | | } | } } { W Y ( ~ Y } | | | | | } | | | | | | } [ [ ` } | } } | | ' P 1 1.1.",
"1.1.1.1.1.1.1.1.1.1.1.I } ` / { | [ 6 Q } | | | } | | | } | | | ' ~ W 7 ! } | } | | | | | | } | } | | | | | | | | | | | { U 1.1.",
"1.1.1.1.1.1.1.1.1.1.1.1.P ` | | } Y K [ | } | | | | | | | | | | | | | [ Y W } | | | } | } | | | | | | | | | | | | | | | | { 5 1.",
"1.1.1.1.1.1.1.1.1.1.1.1.1.2 P / Y K [ | | | | } | | | } | | | } | | | | | Q U Q { | | | | | | | | | | | | } } | | | | | | | Y 1.",
"1.1.1.1.1.1.1.1.1.1.1.1.1.1.1.1.- W } } | | | | | } | | | } | | | | | | | | ( Y Q ~ } | | | | } | | } | | | | | | | | | ' ` W 1.",
"1.1.1.1.1.1.1.1.1.1.1.1.1.1.1.1.P { | { { | | | | | | | | | | | | | } | | } | | } Y W ( { } } } | | } | | | | | | | | | ! ! ^ 1.",
"1.1.1.1.1.1.1.1.1.1.1.1.1.1.1.1.W | } ! ` | } | | } | | | } | | } | | | | | | | } } ( U P ` } | | | } } } | | | } ` ' | ~ ' Y < ",
"1.1.1.1.1.1.1.1.1.1.1.1.1.1.1.P } | ' ~ | | } | | } } | | } | } | | } | | } } | | | | } ^ U P ^ } | ` ^ [ | [ ^ U W { | { ` , 1.",
"1.1.1.1.1.1.1.1.1.1.1.1.1.1.1.~ | | ` ( | | | | | | | | | | | | | | | | | | | | } | } | | [ ( ^ Y ^ ` [ } | } [ ' } | { P 5 1.1.",
"1.1.1.1.1.1.1.1.1.1.1.1.1.1., Q | | | | | | | | | | | | | | | | | | | | | } | | | | | | | | | | ' ^ P Q T ~ ^ ` } / Y P 1.1.1.1.",
"1.1.1.1.1.1.1.1.1.1.1.1.1.1.= K ^ ~ ( [ [ } | | | } } | | } } | | } | | | | | | | | } | | | | } } } [ } [ / T ! ! K 1.1.1.1.1.1.",
"1.1.1.1.1.1.1.1.1.1.1.2 Y P ( ` ' ^ / ^ ! { | | | } | | | | | | | } | } | } } | | } | | | | | | | | | | } | | } } ~ = 1.1.1.1.1.",
"1.1.1.1.1.1.1.1.1.1.I ` } } } | | | | } } } | | | | | | | | } | | | | | | | | | | | | | | | | | } | | | } } | | | ` : 1.1.1.1.1.",
"1.1.1.1.1.1.1.1.1.I { } { } | | | | | | | } | | | | | | | | | | | | | | | | } | | | | | } | | } | | } | | } ` } | { 5 1.1.1.1.1.",
"1.1.1.1.1.1.1.1.2 { ' ~ ' } | | | | | | | | | | | } | } } | } | | } | | | | | | } | } | | | | | } | | | } { Y ' | / , 1.1.1.1.1.",
"1.1.1.1.1.1.1.1.W } / ' | | | | | | | | | } } | | | | | | | } | | } } | | } } | | | | | | | | | | | | | | ` K W | ^ > 1.1.1.1.1.",
"1.1.1.1.1.1.1.> ! | P ~ | | | | | | | | | | | | | | } | | | | | | | | | | | | | | } | | | } | | | | } | | ` T [ | P 1.1.1.1.1.1.",
"1.1.1.1.1.1.1.1.~ | [ } | | } | | | | | | | | | | | | | | | | | | | | | | | | | | } | | | } | } } | | | { [ ` | | 7 1.1.1.1.1.1.",
"1.1.1.1.1.1.1., W ^ / { | | | | | | } | | } | | | | | } | | } | | } } | | } | } | | | } | | | | | | | [ Q { | { W , 1.1.1.1.1.1.",
"# 6 Q 2 7 Y ~ ` ( ! L W [ | } } | } | | | | } | | | } | } | | | | } | | | } | | | } | | | | | | { { W Y ~ | | ( - 1.1.1.1.1.1.1.",
"> K ` T I | } { | | } ` ~ [ { | | | | | | | | | | | | | | | | | | | | | | | | | | | | | | } | | | ` ~ ' | | [ K 1.1.1.1.1.1.1.1.",
": T ^ ' W { } / I ( | | | ' ~ ( { | } | | | ( ~ ~ ( ~ { | | | | | } | | | } | | | | } } | | | [ Q Q ^ | | [ 6 : 1.1.1.1.1.1.1.1.",
"1.U } | } } } } ` ` } } | | } ( { | | | | ( 5 K ` [ [ } | | | | | | | | | | | } | } } ` T ^ { [ ~ ~ ^ ` Q K 1.1.1.1.1.1.1.1.1.1.",
"1.1.P [ | } | | | | [ Q ` { | | } | | } ' 2 1.1.Y ! / [ | | | | | | | | | | } | } | | [ ^ ` | | ' ~ ` ' ~ ; 1.1.1.1.1.1.1.1.1.1.",
"1.1.1.2 ` | | | | | | { W Y ` | | | | } Y 1.1.1.1.1.1.K ! ( { } } | | | | | } { } ` W ( ` | | | } | | | | W 1.1.1.1.1.1.1.1.1.1.",
"1.1.1.1.1 / | | | } | | } ` W } | } | { P + 1.1.1.1.1.1.1.< P 6 T Q ! } ` Q ^ ! W Y Y ^ { } } | } | } } | ` 1 1.1.1.1.1.1.1.1.1.",
"1.1.1.1.1.1.Q { | | | | } } [ { { | } [ < 1.1.1.1.1.1.1.1.1.1.1.1.1.; ( ` ( } } } | | } | } } | | | ' ^ | ` 2 1.1.1.1.1.1.1.1.1.",
"1.1.1.1.1.1.1.5 ~ | | | | | | } Q [ | P 1.1.1.1.1.1.1.1.1.1.1.1.1.1.1.P { | } | | } | | | | } | | | ( W { ! 1.1.1.1.1.1.1.1.1.1.",
"1.1.1.1.1.1.1.1.1.Y ( | | | | } ( ' ' 4 1.1.1.1.1.1.1.1.1.1.1.1.1.1.1.> [ | | | | | | | | | | | | ( ~ ( / 1 1.1.1.1.1.1.1.1.1.1.",
"1.1.1.1.1.1.1.1.1.1.1.T ( [ | | | ' P 1.1.1.1.1.1.1.1.1.1.1.1.1.1.1.1.Y | | | | | | | } | } | | { / } ~ 2 1.1.1.1.1.1.1.1.1.1.1.",
"1.1.1.1.1.1.1.1.1.1.1.1.1.2 Y ! ! 6 1.1.1.1.1.1.1.1.1.1.1.1.1.1.1.1.K [ | | | | } | } { } | } | } { ` 7 1.1.1.1.1.1.1.1.1.1.1.1.",
"1.1.1.1.1.1.1.1.1.1.1.1.1.1.1.1.1.1.1.1.1.1.1.1.1.1.1.1.1.1.1.1.1.1.^ | | | | | | [ ~ W ( } } | { ~ ` ' ` Q I 1.1.1.1.1.1.1.1.1.",
"1.1.1.1.1.1.1.1.1.1.1.1.1.1.1.1.1.1.1.1.1.1.1.1.1.1.1.1.1.1.1.1.1.I } | | | | | | { [ [ } } | | } } | } { ( Q Q 1 1.1.1.1.1.1.1.",
"1.1.1.1.1.1.1.1.1.1.1.1.1.1.1.1.1.1.1.1.1.1.1.1.1.1.1.1.1.1.1.1.1.W | | | | | | | | | | | | | | } | | [ W ! [ Y Y 2 1.1.1.1.1.1.",
"1.1.1.1.1.1.1.1.1.1.1.1.1.1.1.1.1.1.1.1.1.1.1.1.1.1.1.1.1.1.1.1.1.5 / ' } } | | | | | | | | | | } } | | { Y W ( I ; 1.1.1.1.1.1.",
"1.1.1.1.1.1.1.1.1.1.1.1.1.1.1.1.1.1.1.1.1.1.1.1.1.1.1.1.1.1.1.1.1.1.1.1.P W W Y / ' ' ` { | | | | | } { ' ! P 7 1.1.1.1.1.1.1.1.",
"1.1.1.1.1.1.1.1.1.1.1.1.1.1.1.1.1.1.1.1.1.1.1.1.1.1.1.1.1.1.1.1.1.1.1.1.1.1.1.1.1.1.1.: K Y Y L I U P 2 6 : 1.1.1.1.1.1.1.1.1.1."
};
