/* XPM */
static char *result[] = {
/* columns rows colors chars-per-pixel */
"64 64 194 2 ",
"   c #372F4A",
".  c #3C344C",
"X  c #363A55",
"o  c #41374D",
"O  c #43394E",
"+  c #4A3C4F",
"@  c #443E51",
"#  c #4D3E50",
"$  c #503F51",
"%  c #3B554B",
"&  c #3F5A4F",
"*  c #38445D",
"=  c #1E567E",
"-  c #2A4A6C",
";  c #314361",
":  c #274F72",
">  c #275577",
",  c #335A76",
"<  c #3C576E",
"1  c #36617B",
"2  c #45594E",
"3  c #4B4453",
"4  c #494657",
"5  c #544252",
"6  c #5B4553",
"7  c #544D55",
"8  c #574D59",
"9  c #575056",
"0  c #595257",
"q  c #5C5659",
"w  c #58545C",
"e  c #634A55",
"r  c #6B4D57",
"t  c #6E4F58",
"y  c #635D5B",
"u  c #685158",
"i  c #74535A",
"p  c #7A555B",
"a  c #7F595C",
"s  c #704F58",
"d  c #4B6558",
"f  c #5B6154",
"g  c #6A645E",
"h  c #6C665E",
"j  c #78695E",
"k  c #565461",
"l  c #5B5B65",
"z  c #5E5F68",
"x  c #4B4F60",
"c  c #615F63",
"v  c #576E73",
"b  c #686666",
"n  c #736D61",
"m  c #767163",
"M  c #7B7564",
"N  c #7E7966",
"B  c #7C7C69",
"V  c #696D71",
"C  c #6D7275",
"Z  c #637D7A",
"A  c #757C7B",
"S  c #707576",
"D  c #647060",
"F  c #845A5D",
"G  c #895D5E",
"H  c #80575C",
"J  c #86705E",
"K  c #8F6160",
"L  c #936361",
"P  c #9A6662",
"I  c #9D6863",
"U  c #817B67",
"Y  c #8E7360",
"T  c #987762",
"R  c #A46C65",
"E  c #AB6F66",
"W  c #AE7067",
"Q  c #A77C66",
"!  c #B47469",
"~  c #B9766A",
"^  c #BD796B",
"/  c #B07167",
"(  c #C27C6C",
")  c #C87F6E",
"_  c #79817A",
"`  c #778572",
"'  c #858069",
"]  c #8A856B",
"[  c #8E896C",
"{  c #928D6D",
"}  c #96926F",
"|  c #979370",
" . c #999571",
".. c #9D9A72",
"X. c #BC846B",
"o. c #A19D74",
"O. c #95A27F",
"+. c #A4A175",
"@. c #AAA677",
"#. c #ADA877",
"$. c #ADAA79",
"%. c #A3A77C",
"&. c #B1AE7A",
"*. c #B5B37C",
"=. c #BDBA7F",
"-. c #BAB67D",
";. c #CC816F",
":. c #C4866C",
">. c #D58571",
",. c #DC8A73",
"<. c #D98B73",
"1. c #C78B70",
"2. c #E48D74",
"3. c #E88F74",
"4. c #EB9276",
"5. c #EA967A",
"6. c #F49678",
"7. c #F5997B",
"8. c #FC9B7A",
"9. c #F19677",
"0. c #1E5B84",
"q. c #1C5F88",
"w. c #215E84",
"e. c #1A648E",
"r. c #0D6C9F",
"t. c #146593",
"y. c #116D9D",
"u. c #166794",
"i. c #286789",
"p. c #3A7288",
"a. c #296D8E",
"s. c #0975A9",
"d. c #047DB4",
"f. c #017FB8",
"g. c #0F6FA0",
"h. c #507881",
"j. c #0380B7",
"k. c #0281B9",
"l. c #7D8682",
"z. c #838E87",
"x. c #88948B",
"c. c #909D91",
"v. c #96A798",
"b. c #9DB69D",
"n. c #AEB891",
"m. c #A6BBA5",
"M. c #A9BEA7",
"N. c #FA9F81",
"B. c #E99E86",
"V. c #C1BF80",
"C. c #FBA284",
"Z. c #FCA98C",
"A. c #F9A588",
"S. c #E3A996",
"D. c #FCAD91",
"F. c #FDB095",
"G. c #FCB59B",
"H. c #FCB89F",
"J. c #FCBCA3",
"K. c #ACC3AB",
"L. c #ACCCAC",
"P. c #B1C9AF",
"I. c #B3CCB0",
"U. c #BAD4B6",
"Y. c #BCD6B7",
"T. c #C5C282",
"R. c #CDCB85",
"E. c #C8C582",
"W. c #D1CE86",
"Q. c #D4D187",
"!. c #D5D388",
"~. c #D8D689",
"^. c #DDDB8B",
"/. c #E0DF8D",
"(. c #E4E38E",
"). c #E9E68E",
"_. c #E8E790",
"`. c #ECEB91",
"'. c #F0EF93",
"]. c #F4F495",
"[. c #FAFA97",
"{. c #FFFF99",
"}. c #F9F795",
"|. c #C1DEBC",
" X c #FDC3AC",
".X c #FDCAB4",
"XX c #FDCDB8",
"oX c #FDC7B1",
"OX c #C5E2BF",
"+X c #C9E7C3",
"@X c #CDECC5",
"#X c #C6E4C0",
"$X c #D0F0C8",
"%X c None",
/* pixels */
"%X%X%X%X%X%X%X%X%X%X%X%X%X%X%X%X%X%X%X%X%X%X%X%X%X%X%X%X%X%X%X. . %X%X%X%X%X%X%X%X%X%X%X%X%X%X%X%X%X%X%X%X%X%X%X%X%X%X%X%X%X%X%X",
"%X%X%X%X%X%X%X%X%X%X%X%X%X%X%X%X%X%X%X%X%X%X%X%X%X%X%X%X%X%X. 6 + . %X%X%X%X%X%X%X%X%X%X%X%X%X%X%X%X%X%X%X%X%X%X%X%X%X%X%X%X%X%X",
"%X%X%X%X%X%X%X%X%X%X%X%X%X%X%X%X%X%X%X%X%X%X%X%X%X%X%X%X. . p 2.>.G O %X%X%X%X%X%X%X%X%X%X%X%X%X%X%X%X%X%X%X%X%X%X%X%X%X%X%X%X%X",
"%X%X%X%X%X%X%X%X%X%X%X%X%X%X%X%X%X%X%X%X%X%X%X%X%X%X%X. . F 4.8.A.8.^ 6 . %X%X%X%X%X%X%X%X%X%X%X%X%X%X%X%X%X%X%X%X%X%X%X%X%X%X%X",
"%X%X%X%X%X%X%X%X%X%X%X%X%X%X%X%X%X%X%X%X%X%X%X%X%X%X. . L 9.8.H..XH.C.>.i . %X%X%X%X%X%X%X%X%X%X%X%X%X%X%X%X%X%X%X%X%X%X%X%X%X%X",
"%X%X%X%X%X%X%X%X%X%X%X%X%X%X%X%X%X%X%X%X%X%X%X%X%X. + R 7.8.G.XXXX XA.8.4.L + %X%X%X%X%X%X%X%X%X%X%X%X%X%X%X%X%X%X%X%X%X%X%X%X%X",
"%X%X%X%X%X%X%X%X%X%X%X%X%X%X%X%X%X%X%X%X%X%X%X. . 6 ~ 8.8.8.oXXX.XZ.8.8.4.;.^ 6 %X%X%X%X%X%X%X%X%X%X%X%X%X%X%X%X%X%X%X%X%X%X%X%X",
"%X%X%X%X%X%X%X%X%X%X%X%X%X%X%X%X%X%X%X%X%X%X. . O ~ 8.8.8.G.XXXXF.8.8.8.6.R >.2.p . %X%X%X%X%X%X%X%X%X%X%X%X%X%X%X%X%X%X%X%X%X%X",
"%X%X%X%X%X%X%X%X%X%X%X%X%X%X%X%X%X%X%X%X%X. . . e 2.8.8.8.oXXXXXF.8.) ) 8.,.p ) 4.L O %X%X%X%X%X%X%X%X%X%X%X%X%X%X%X%X%X%X%X%X%X",
"%X%X%X%X%X%X%X%X%X%X%X%X%X%X%X%X%X%X%X. 6 5 . r >.8.8.7.G.XXXXXXH.8.2.p W 8.) 6 W 6.E # %X%X%X%X%X%X%X%X%X%X%X%X%X%X%X%X%X%X%X%X",
"%X%X%X%X%X%X%X%X%X%X%X%X%X%X%X%X%X%X+ F I e K 4.8.8.8.8.oXXXXXXX X8.8.;.e P 6.! # W 8.^ 5 %X%X%X%X%X%X%X%X%X%X%X%X%X%X%X%X%X%X%X",
"%X%X%X%X%X%X%X%X%X%X%X%X%X%X%X%X. s W L i ( 7.8.8.C.G. XXXXXXXXX.XH.8.8.>.e G 4.R e 2.8.) e %X%X%X%X%X%X%X%X%X%X%X%X%X%X%X%X%X%X",
"%X%X%X%X%X%X%X%X%X%X%X%X%X%X%X5 P W p P 3.8.8.8.H..XXXXXXXXXXXXX.XXXJ.C.8.,.e i 2.I F 6.8.>.e %X%X%X%X%X%X%X%X%X%X%X%X%X%X%X%X%X",
"%X%X%X%X%X%X%X%X%X%X%X%X%Xo i / K a ;.8.8.8.C.J.XXXXXXXXXXXXXX.XXXXXXX XC.8.,.6 r ,.I P 6.8.<.s %X%X%X%X%X%X%X%X%X%X%X%X%X%X%X%X",
"%X%X%X%X%X%X%X%X%X%X%X%X5 P R p ! 9.8.8.8.D. XXXXXXXXXXXXXXXXXXXXXXXXXXX XC.8.>.5 6 ;.I I 6.8.,.i %X%X%X%X%X%X%X%X%X%X%X%X%X%X%X",
"%X%X%X%X%X%X%X%X%X%X. t I p G ,.8.8.8.A. XXXXX.XXXXXXXXXXXXXXXXXXXXXXXXXXXJ.C.8.^ # 5 ( I P 6.8.2.p %X%X%X%X%X%X%X%X%X%X%X%X%X%X",
"%X%X%X%X%X%X%X%X%X# p H 5 P 6.8.8.N.H.oXXXXXXXXX XF.oXXXXXXXXXXXXXXXXXXXXXXXF.8.8.W . 5 ! I K 4.8.2.a %X%X%X%X%X%X%X%X%X%X%X%X%X",
"%X%X%X%X%X%X%X%Xo $ 6 # E 8.8.8.D.oXXXXXXXXXoXD.8.8.Z.oXXXXXXXXX.XXXXXXXXX.X.XZ.8.6.P . + E I F 4.8.2.F %X%X%X%X%X%X%X%X%X%X%X%X",
"%X%X%X%X%X%X%X. . . e ( 8.8.A.J..XXXXXXX.XG.C.8.8.8.8.8.G. X.X.X.X.X.X.XXXXXXX X8.8.4.a 5 e R P p 4.8.4.F . %X%X%X%X%X%X%X%X%X%X",
"%X%X%X%X%X%X. . O H 2.8.C.J.oXXXXX.XoXJ.A.8.8.8.8.8.7.8.7.8.8.A.C.C.Z.F.J. X.X.XZ.8.8.2.s p e K p p 4.8.4.G . %X%X%X%X%X%X%X%X%X",
"%X%X%X%X%X. $ p ( 8.8.8.C.Z.Z.Z.Z.Z.C.8.8.8.8.8.8.8.8.8.8.8.8.8.8.8.8.8.8.8.C.Z.C.8.8.8.>.e G e p t G 6.8.6.K o %X%X%X%X%X%X%X%X",
"%X%X%X$ i W ,.8.8.8.8.8.8.8.8.8.8.8.8.8.8.8.8.8.8.8.9.8.8.8.8.8.8.8.8.8.8.8.8.8.8.8.8.8.8.( 6 P 6 t 6 G 3.8.8.R # %X%X%X%X%X%X%X",
"%X. O I ,.3.2.>.) ( ~ ! / / W W / / E E E R I L H s r H L P E W / ~ ~ ^ ^ ^ ~ ! ~ ~ ~ ! / K o 5 L $ @ . e E ) ) p . %X%X%X%X%X%X",
". . . 5 5 5 5 g M m m n N ] { | ....o.o.o.o.o...} +.-.n.-.&.+. .] U M n n h y y q 0 7 0 0 g g 7 e F O . . . @ O O . . %X%X%X%X%X",
". o %X%X%X. M `.[.[.[.[.{.{.{.{.{.{.{.{.{.{.{.[.}.[.{.{.{.{.{.{.{.{.{.}.[.].].].`._._.`.`.[.].).#.u t 5 + . . %X. . o . %X%X%X%X",
"%X%X%X%X%X%X] {.{.{.{.{.].^.^._.(.^.Q.V.&.| _ Z v h.%.[.{.{.{.{.{.{.{.{.{.{.{.{.{.{.{.{.{.{.{.{.[.[ 5 e I p o %X%X%X%Xo . %X%X%X",
"%X%X%X%X%X%X} {.{.{.{._.m < 1 p.p.p., : > t.s.d.f.f.q.&.{.{.{.{.}.n.O.O.%.*.T.W.~.^.^.R.n.W.[.{.{.].' . 5 W P + %X%X%X%X%Xo %X%X",
"%X%X%X%X%X%X| {.{.{.{.#.: d.d.f.y.s.k.d.f.d.f.f.f.f.t.n ].{.{.{.-.e.g.s.y.u.> , i.a.a.a.i., &.{.{.{.].[ . + E R @ %X%X%X%X%X. %X",
"%X%X%X%X%X%Xn '.{.{.{.{ = k.f.f.: : d.f.s.: u.k.f.f.0.0 `.{.{.{.` y.k.k.k.f.d.j.j.y.u.k.k.s.z `.{.{.{.!.3 . o P F . %X%X%X%X%X. ",
"%X%X%X%X%X%X@ R.{.{.{.] X u.d.g.X 8 > g.q.. X t.s.q.X 7 ).{.{.{.U = j.k.d.> > j.d.- ; d.k.g.* R.{.{.{.#.. %X. + 6 . %X%X%X%X%X%X",
"%X%X%X%X%X%X. @.{.{.{.N w x ; X k P.z.@ @ k l.x X . 3 7 ).{.{.{.[ . > g.e.. X > - l 4 - q.* . +.{.{.{.' . %X%X%X. . %X%X%X%X%X%X",
"%X%X%X%X%X%X. m [.{.[.n l.I.c.z.M.@X+Xx.z M.+XU.m.m.m.c /.{.{.{.#.. . . @ A l @ l I.v.4 4 V l.N {.{.[.n . %X%X%X%X%X%X%X%X%X%X%X",
"%X%X%X%X%X%X. g ].{.{.n C @X$X@X@X@X@Xz.@ x.@X@X$X@XY.b !.{.{.{.T.b b.c.M.+XP.c c.$X@XI.P.+Xb.c `.{.{.{ . %X%X%X%X%X%X%X%X%X%X%X",
"%X%X%X%X%X%X  N {.{.{. .V @X@X@X@X@X@XY.K.Y.@X@X@X@X#Xl -.{.{.{.!.V @X@X@X@XP.x l.+X@X@X@X@XM.q _.{.{.| . %X%X%X%X%X%X%X%X%X%X%X",
"%X%X%X%X%X%X  ] {.{.{.R.w m.OX@X@X@X+X+X@X@X@X@X@X@XU.w m ].{.{.^.c Y.@X@X@X+XY.OX@X@X@X$X@XM.n ].{.{.... %X%X%X%X%X%X%X%X%X%X%X",
"%X%X%X%X%X%X  [ {.{.{.R.. @ l S h.C V V V C S l.l.C 7 o o n.{.{.V.4 M.+X@X+XOX|.U.I.L.P.M.v.l 4 (.{.{.V.O %X%X%X%X%X%X%X%X%X%X%X",
"%X%X%X%X%X%X. [ {.{.{.].o. .@.&.=.*.*.&.&.#.#.@.+.o...| +.`.{.{.]   4 V h.S b i c b g m m h g M `.{.{.^.4 %X%X%X%X%X%X%X%X%X%X%X",
"%X%X%X%X%X%X%X] {.{.{.{.{.{.{.{.{.{.{.{.{.{.{.{.{.{.{.{.{.{.{.{.!.}  .$.=.W.W.^.(._.`.].}.[.].].{.{.{./.3 %X%X%X%X%X%X%X%X%X%X%X",
"%X%X%X%X%X%X%XU {.{.{.{.{.{.{.{.{.{.{.{.{.{.{.{.{.{.{.{.{.{.{.{.{.{.{.{.{.{.{.{.{.{.{.{.{.{.{.{.{.{.{.!.@ %X%X%X%X%X%X%X%X%X%X%X",
"%X%X%X%X%X%X%XU {.{.{.{.[.{.{.{.{.{.{.{.{.{.{.{.{.{.{.{.{.{.{.{.{.{.{.{.{.{.{.{.{.{.{.{.{.{.{.{.{.{.{.V.@ . %X%X%X%X%X%X%X%X%X%X",
"%X%X%X%X%X%X%XM {.{.{.{.{.{.{.{.{.{.{.{.{.{.{.{.{.{.{.{.{.{.{.{.{.{.{.{.{.{.{.{.{.{.{.{.{.{.{.{.{.{.{.#.. . %X%X%X%X%X%X%X%X%X%X",
"%X%X%X%X%X%X%Xm [.{.{.{.{.{.{.{.{.{.{.{.[.{.{.{.{.{.{.{.{.{.{.{.{.{.{.{.{.{.{.{.{.{.{.{.{.{.{.{.{.{.{.| . . %X%X%X%X%X%X%X%X%X%X",
"%X%X%X%X%X%X%Xm [.{.{.{.{.{.{.{.{.{.{.{.T.=.[.R.@.+.+.$.$.&.*.=.V.R.!.!.!.R._.{.{.{.{.{.{.{.{.{.{.{.{.' . . %X%X%X%X%X%X%X%X%X%X",
"%X%X%X%X%X%X. m [.{.{.{.{.{.{.{.{.{.{.{.-.9 !.h   + r e 6 5 5 6 e 8 8 e 5 O n ].{.{.{.{.{.{.{.{.{.{.{.U . . %X%X%X%X%X%X%X%X%X%X",
"%X%X%X%X%X%X  N {.{.{.{.{.{.{.{.{.{.{.{.E.3 R.h . W 6.6.4.3.2.4.4.3.2.3.>.H 4 /.{.{.{.{.{.{.{.{.{.{.{.U . . %X%X%X%X%X%X%X%X%X%X",
"%X%X%X%X%X%X  { {.{.{.{.{.{.{.{.{.{.{.{.~.3 *.n u 9.8.8.Z.F.F.F.F.F.F.C.8.9.i R.{.{.{.{.{.{.{.{.{.{.{.U . . %X%X%X%X%X%X%X%X%X%X",
"%X%X%X%X%X%X. &.{.{.{.{.{.{.{.{.{.{.{.{.`.q y 3 G 7.8.H..XXX.XXXXXXXXXD.8.8.H &.{.{.{.{.{.{.{.{.{.{.{.[ . . %X%X%X%X%X%X%X%X%X%X",
"%X%X%X%X%X. @ Q.{.{.{.{.{.{.{.{.{.{.{.{.{.N   . p 8. XXXXXXXXX.X.XJ.J.N.8.8.H [ {.{.{.{.{.{.{.{.{.{.{.... . %X%X%X%X%X%X%X%X%X%X",
"%X%X%X%X%X. 7 _.{.{.{.{.{.{.{.{.{.{.{.{.{.&..   F H.XXXXXX XG.D.C.8.8.8.8.8.a M [.{.{.{.{.{.{.{.{.{.{.#.. . %X%X%X%X%X%X%X%X%X%X",
"%X%X%X%X%X. y ].{.{.{.{.{.{.{.{.{.{.{.{.{.~.3 . H H.XXXXG.8.8.9.1.Y M X.6.8.H U {.{.{.{.{.{.{.{.{.{.{.=.O . %X%X%X%X%X%X%X%X%X%X",
"%X%X%X%X%X. n [.{.{.{.{.{.{.{.{.{.{.{.{.{.].N   i D.XX X8.8.7.T 2 % & & Q 8.F ..{.{.{.{.{.{.{.{.{.{.{.R.O . %X%X%X%X%X%X%X%X%X%X",
"%X%X%X%X%X  m [.{.{.{.{.{.{.{.{.{.{.{.{.{.{.^.9 r A. X8.8.8.4.q % d b.` f 4.K *.{.{.{.{.{.{.{.{.{.{.{.~.3 %X%X%X%X%X%X%X%X%X%X%X",
"%X%X%X%X%X%XN {.{.{.{.{.{.{.{.{.{.{.{.{.{.{.`.q e 7.D.8.8.8.8.Y % d b.L.N 4.I @.{.{.{.{.{.{.{.{.{.{.{.^.3 %X%X%X%X%X%X%X%X%X%X%X",
"%X%X%X%X%X%XU [.{.{.{.{.{.{.{.{.{.{.{.{.{.{.(.3 6 5.H.8.8.8.8.2.j 2 & D 1.8.W M }.{.{.{.{.{.{.{.{.{.{._.y %X%X%X%X%X%X%X%X%X%X%X",
"%X%X%X%X%X%XU ].{.{.{.{.{.{.{.{.{.{.{.{.{.{.`.w 6 B. XC.8.8.8.8.9.X.Q 1.8.8.~ U {.{.{.{.{.{.{.{.{.{.{.{.' %X%X%X%X%X%X%X%X%X%X%X",
"%X%X%X%X%X%XM ].[.{.{.{.{.{.{.{.{.{.{.{.{.{.}.h 3 S.XXD.8.8.8.8.8.8.8.8.8.8.>.g ].{.{.{.{.{.{.{.{.{.{.[.N %X%X%X%X%X%X%X%X%X%X%X",
"%X%X%X%X%X%Xy `.{.{.{.{.{.{.{.{.{.{.{.{.{.{.[.M # S.XXH.8.8.8.8.8.8.8.8.8.8.>.5 =.{.{.{.{.{.{.{.{.{.{.`.y %X%X%X%X%X%X%X%X%X%X%X",
"%X%X%X%X%X%X0 (.{.{.{.{.{.{.{.{.{.{.{.{.{.{.[.m # 2.Z.C.8.8.8.8.8.8.8.8.8.8.3.6 g _.{.{.{.{.{.{.{.{.{._.7 %X%X%X%X%X%X%X%X%X%X%X",
"%X%X%X%X%X%X3 W.{.{.{.{.{.[.{.{.{.{.{.{.{.{.].g # 2.8.8.7.8.8.8.8.8.8.8.8.8.8.i    .{.{.{.{.{.{.{.{.{._.7 %X%X%X%X%X%X%X%X%X%X%X",
"%X%X%X%X%X%XO =.{.{.{.{.{.{.{.{.{.{.{.{.{.{.).7 O ) 8.8.8.8.8.8.8.9.9.3.2.3.,.F   n ~._._.].].'.`./.!.@.3 . %X%X%X%X%X%X%X%X%X%X",
"%X%X%X%X%X%X. +.{.{.{.{.{.{.{.{.[.}.].]._.(...O . e L L P R R I G i e 6 5 6 3 O . . 3 9 0 y y q 9 3 @ . . . o %X%X%X%X%X%X%X%X%X",
"%X%X%X%X%X%X. g /.}.].`.Q.*.| U m n h y q 7 O . . . . . . . %X%X%X%X%X%X%X%X%X%X%X%X%X%X%X  . . . . %X%X. . %X%X%X%X%X%X%X%X%X%X",
"%X%X%X%X%X%X. . 7 n h y 3 . . %X%X%X%X%X%X%X%X%X%X%X%X%X%X%X%X%X%X%X%X%X%X%X%X%X%X%X%X%X%X%X%X%X%X%X%X%X%X%X%X%X%X%X%X%X%X%X%X%X",
"%X%X%X%X%X%X. . %X%X%X%X%X%X%X%X%X%X%X%X%X%X%X%X%X%X%X%X%X%X%X%X%X%X%X%X%X%X%X%X%X%X%X%X%X%X%X%X%X%X%X%X%X%X%X%X%X%X%X%X%X%X%X%X"
};
