/* XPM */
static char *result[] = {
/* columns rows colors chars-per-pixel */
"64 64 219 2 ",
"   c #020202",
".  c #0B0B0B",
"X  c #090706",
"o  c #1A0707",
"O  c #19160D",
"+  c #1D1A12",
"@  c #181717",
"#  c #2A0A0A",
"$  c #201D0F",
"%  c #251B13",
"&  c #3C1110",
"*  c #3C0F0E",
"=  c #2B2513",
"-  c #2B281B",
";  c #342D16",
":  c #3B331A",
">  c #2D280D",
",  c #232222",
"<  c #2C2C2B",
"1  c #3A3627",
"2  c #353535",
"3  c #3D3D3D",
"4  c #393935",
"5  c #461514",
"6  c #571918",
"7  c #6B1D1D",
"8  c #443A1C",
"9  c #483C19",
"0  c #5F201F",
"q  c #462828",
"w  c #433C23",
"e  c #413D2B",
"r  c #433A36",
"t  c #5A2E2D",
"y  c #7D2221",
"u  c #763636",
"i  c #3C613C",
"p  c #4D441F",
"a  c #53461E",
"s  c #5A4C1E",
"d  c #67591F",
"f  c #6A601F",
"g  c #574A24",
"h  c #5C5025",
"j  c #464339",
"k  c #5E5534",
"l  c #50472C",
"z  c #625323",
"x  c #6B5B24",
"c  c #6C5C29",
"v  c #635829",
"b  c #645D39",
"n  c #705D24",
"m  c #796525",
"M  c #74622A",
"N  c #7C692A",
"B  c #796626",
"V  c #6B603E",
"C  c #756631",
"Z  c #7A7137",
"A  c #3D6A47",
"S  c #444443",
"D  c #4C4C4C",
"F  c #4A4941",
"G  c #59554A",
"H  c #535353",
"J  c #5C5C5C",
"K  c #5A4545",
"L  c #715353",
"P  c #746A46",
"I  c #6A7244",
"U  c #6B6657",
"Y  c #746D55",
"T  c #636363",
"R  c #6C6B6B",
"E  c #747473",
"W  c #7C7C7B",
"Q  c #7C7B77",
"!  c #776E69",
"~  c #44744B",
"^  c #852322",
"/  c #952827",
"(  c #913631",
")  c #A52B2A",
"_  c #AD2C2B",
"`  c #B42E2D",
"'  c #BA302F",
"]  c #B6302F",
"[  c #A73C3A",
"{  c #BD3130",
"}  c #B33736",
"|  c #C83D3C",
" . c #D93D3C",
".. c #EB3F3F",
"X. c #A4463E",
"o. c #B7483D",
"O. c #836D2B",
"+. c #846C25",
"@. c #8A742C",
"#. c #807425",
"$. c #947A2C",
"%. c #9B7F2A",
"&. c #806F36",
"*. c #847131",
"=. c #8A7838",
"-. c #947D35",
";. c #E93F40",
":. c #F13F40",
">. c #925047",
",. c #B44F46",
"<. c #8D7A40",
"1. c #8F744C",
"2. c #926868",
"3. c #9A7777",
"4. c #817F75",
"5. c #A4686A",
"6. c #D04941",
"7. c #EF4040",
"8. c #E44140",
"9. c #F14040",
"0. c #C26867",
"q. c #3C814C",
"w. c #438A49",
"e. c #46994E",
"r. c #53954E",
"t. c #4DA854",
"y. c #4FBA59",
"u. c #4DB557",
"i. c #51B959",
"p. c #52B65A",
"a. c #53AC58",
"s. c #65986A",
"d. c #5AAF62",
"f. c #65A76B",
"g. c #65B86C",
"h. c #6FAB74",
"j. c #6D894D",
"k. c #6DC374",
"l. c #9C852C",
"z. c #9E8531",
"x. c #978637",
"c. c #A5872C",
"v. c #A6952D",
"b. c #A58A33",
"n. c #A88B31",
"m. c #AC9134",
"M. c #AD933A",
"N. c #AF9B38",
"B. c #B49533",
"V. c #BA9C39",
"C. c #B1902E",
"Z. c #BBA637",
"A. c #B1A02F",
"S. c #C29F34",
"D. c #C8A637",
"F. c #D2AB36",
"G. c #D4AE39",
"H. c #C9B637",
"J. c #DCB53C",
"K. c #D6B539",
"L. c #E4BA3B",
"P. c #E9BE3B",
"I. c #EDC13D",
"U. c #FBCC3D",
"Y. c #F4C73C",
"T. c #F4D13C",
"R. c #948852",
"E. c #AA9B45",
"W. c #B89F41",
"Q. c #A99353",
"!. c #91886D",
"~. c #A19264",
"^. c #BBB06D",
"/. c #DAB943",
"(. c #C8B350",
"). c #C3B27D",
"_. c #EECF4F",
"`. c #858585",
"'. c #8B8B8B",
"]. c #8B8980",
"[. c #939493",
"{. c #9C9C9C",
"}. c #9C9A95",
"|. c #92918E",
" X c #A19C86",
".X c #BBB389",
"XX c #ACA891",
"oX c #A5A4A4",
"OX c #ABABAB",
"+X c #ABA8A6",
"@X c #B1ABAB",
"#X c #B3B1A8",
"$X c #B3B3B3",
"%X c #BCBCBC",
"&X c #B9B9B5",
"*X c #C6BF96",
"=X c #A0D5A4",
"-X c #95D49A",
";X c #C8C19E",
":X c #F7EA8F",
">X c #C7C4B7",
",X c #CFCAAA",
"<X c #BFE4C2",
"1X c #C4C4C4",
"2X c #CCCCCC",
"3X c #CBC8C4",
"4X c #D4D4D4",
"5X c #DBDBDC",
"6X c #DAD8D3",
"7X c #DFDCCC",
"8X c #E0DED3",
"9X c #E4E4E4",
"0X c #EBEBEB",
"qX c #E6E7E8",
"wX c #F4F4F4",
"eX c #FEFEFE",
"rX c #F0F9F1",
"tX c #E0ECCF",
"yX c None",
/* pixels */
"yXyXyXyXyXyXyXyXyXyXyXyXyXyXyXyXyXyXyXyXyXyXyXyXyXyXyXyXyXyXyXyXyXyXyXyXyXyXyXyXyXyXyXyXyXyXyXyXyXh.g.d.a.a.r.yXyXyXyXyXyXyXyXyX",
"yXyXyXyXyXyXyXyXyXyXyXyXyXyXyXyXyXyXyXyXyXyXyXyXyXyXyXyXyXyXyXyXyXyXyXyXyXyXyXyXyXyXyXyXyXyXyXh.g.g.y.y.i.i.i.u.e.yXyXyXyXyXyXyX",
"yXyXyXyXyXyXyXyXyXyXyXyXyXyXyXyXyXyXyXyXyXyXyXyXyXyXyXyXyXyXyXyXyXyXyXyXyXyXyXyXyXyXyXyXyXyXf.=X<Xg.y.y.i.i.i.i.p.w.yXyXyXyXyXyX",
"yXyXyXyXyXyXyXyXyXyXyXyXyXyXyXyXyXyXyXyXyXyXyXyXyXyXyXyXyXyXyXyXyXyXyXyXyXyXyXyXyXyXyXyXyXs.k.wX<Xp.i.y.i.i.i.i.i.t.>.yXyXyXyXyX",
"yXyXyXyXyXyXyXyXyXyXyXyXyXyXyXyXyXyXyXyXyXyXyXyXyXyXyXyXyXyXyXyXyXyXyXyXyXyXyXyXyXyXyXyXyXs.k.-Xk.i.i.i.i.i.i.i.i.a.>.7.6.X.yXyX",
"yXyXyXyXyXyXyXyXyXyXyXyXyXyXyXyXyXyXyXyXyXyXyXyXyXyXyXyXyXyXyXyXyXyXyXyXyXyXyXyXyXyXyXyXyXd.y.i.i.i.i.i.i.i.i.i.i.p.1.9.7.8.[ yX",
"yXyXyXyXyXyXyXyXyXyXyXyXyXyXyXyXyXyXyXyXyXyXyXyXyXyXyXyXyXyXyXyXyXyXyXyXyXyXyXyXyXyXyXyXyXs.p.i.i.i.i.i.i.i.i.i.i.a.,.9.9.9.| yX",
"yXyXyXyXyXyXyXyXyXyXyXyXyXyXyXyXyXyXyXyXyXyXyXyXyXyXyXyXyXyXyXyXyXyXyXyXyXyXyXyXyXyXyXyXyXs.p.i.i.i.i.i.i.i.i.i.i.j.8.9.7.9.9.( ",
"yXyXyXyXyXyXyXyXyXyXyXyXyXyXyXyXyXyXyXyXyXyXyXyXyXyXyXyXyXyXyXyXyXyXyXyXyXyXyXyXyXyXyXyXyXyXg.i.y.i.i.i.i.i.p.p.r.6.7.7.7.7.7.o.",
"yXyXyXyXyXyXyXyXyXyXyXyXyXyXyXyXyXyXyXyXyXyXyXyXyXyXyXyXyXyXyXyXyXyXyXyXyXyXyXyXyXyXyXyXyXyXyXd.i.i.i.i.i.i.u.r.o.7.7.7.7.7.7.} ",
"yXyXyXyXyXyXyXyXyXyXyXyXyXyXyXyXyXyXyXyXyXyXyXyXyXyXyXyXyXyXyXyXyXyXyXyXyXyXyXyXyXyXyXyXyXyXyX~ e.p.y.i.i.t.I o.8.7.7.7.7.9. .yX",
"yXyXyXyXyXyXyXyXyXyXyXyXyXyXyXyXyXyXyXyXyXyXyXyXyXyXyXyXyXyXyXyXyXyXyXyXyXyXyXyXyXyXyXyXyXyXyXyXyXw.e.w.I X. .7.7.7.7.7.7. .[ yX",
"yXyXyXyXyXyXyXyXyXyXyXyXyXyXyXyXyXyXyXyXyXyXyXyXyXyXyXyXyXyXyXyXyXyXyXyXyXyXyXyXyXyXyXyXyXyXyXyXyXyXyXi ,.;.;.7.7.7.7. .} yXyXyX",
"yXyXyXyXyXyXyXyXyXyXyXyXyXyXyXyXyXyXyXyXyXyXyXyXyXyXyXyXyXyXyXyXyXyXyXyXyXyXyXyXyXyXyXyXyXyXyXyXyXyXA q.yXyX[ | | ] [ yXyXyXyXyX",
"yXyXyXyXyXyXyXyXyXyXyXyXyXyXyXyXyXyXyXyXyXyXyXyXyXyXyXyXyXyXyXyXyXyXyXyXyXyXyXyXyXyXyXyXyXyXyXyXyXyXyXyXyXyXyXyXyX( yXyXyXyXyXyX",
"yXyXyXyXyXyXyXyXyXyXyXyXyXyXyXyXyXyXyXyXyXyXyXyXyXyXyXyXyXyXyXyXyXyXyXyXyXyXyXyXyXyXyXyXyXyXyXyXyXyXyXyXyXyXyXyXyXyXyXyXyXyXyXyX",
"yXyXyXyXyXyXyXyXyXyXyXyXyXyXyXyXyXyXyXyXyXyXyXyXyXyXyXyXyXyXyXyXyXyXyXyXyXyXyXyXyXyXyXyXyXyXyXyXyXyXyXyXyXyXyXyXyXyXyXyXyXyXyXyX",
"yXyXyXyXyXyXyXyXyXyXyXyXyXyXyXyXyXyXyXyXyXyXyXyXyXyXyXyXyXyXyXyXyXyXyXyXyXyXyXyXyXyXyXyXyXyXyXyXyXyXyXyXyXyXyXyXyXyXyXyXyXyXyXyX",
"yXyXyXyXyXyXyXyXyXyXyXyXyXyXyXyXyXyXyXyXyXyXyXyXyXyXyXyXyXyXyXyXyXyXyXyXyXyXyXyXyXyXyXyXyXyXyXyXyXyXyXyXyXyXyXyXyXyXyXyXyXyXyXyX",
"yXyXyXyXyXyXyXyXyXyXyXyXyXyXyXyXyXyXyXyXyXyXyXyXyXyXyXyXyXyXyXyXyXyXyXyXyXyXyXyXyXyXyXyXyXyXyXyXyXyXyXyXyXyXyXyXyXyXyXyXyXyXyXyX",
"yXyXyXyXyXyXyXyXyXyXyXyXyXyXyXyXyXyXyXyXyXyXyXyXyXyXyXyXyXyXyXyXyXyXyXyXyXyXyXyXyXyXyXyXyXyXyXyXyXyXyXyXyXyXyXyXyXyXyXyXyXyXyXyX",
"yXyXyXyXyXyXyXyXyXyXyXyXyXyXyXyXyXyXyXyXyXyXyXyXyXyXyXyXyXyXyXyXyXyXyXyXyXyXyXyXyXyXyXyXx.R.- yXyXyXyXyXyXyXyXyXyXyXyXyXyXyXyXyX",
"yXyXyXyXyXyXyXyXyXyXyXyXyXyXyXyXyXyXyXyXyXyXyXyXyXyXyXyXyXyXyXyXyXyXyX$ Z R.E.W..X&X2X>X;X(.x.yXyXyXyXyXyXyXyXyXyXyXyXyXyXyXyXyX",
"yXyXyXyXyXyXyXyXyXyXyXyXyXyXyXyXyXyXyXyXyXyXyXyXyXyXyXyXyXyXyXyXyXyXyX. p W.(.,XwXeXeXeXeX5XR.= yXyXyXyXyXyXyXyXyXyXyXyXyXyXyXyX",
"yXyXyXyXyXyXyXyXyXyXyXyXyXyXyXyXyXyXyXyXyXyXyXyXyXyXyXyXyXyXyXyXyXyXyXyXyXv ^.eXeXeXeXwXeXeX3XV yXyXyXyXyXyXyX[.T yXyXyXyXyXyXyX",
"yXyXyXyXyXyXyXyXyXyXyXyXyXyXyXyXyXyXyXyXyXyXyXyXyXyXyXyXyXyXyXyXyXyXyXyXyXx.;XeXqX5X4X1X&XwXwX! F yXyXyXyXyX+X9X1X%X'.H '.'.yXyX",
"yXyXyXyXyXyXyXyXyXyXyXyXyXyXyXyXyXyXyXyXyXyXyXyXyXyXyXyXyXyXyXyXyXyXyXyXyXP >XeXwXOX`.E '.&X0X4X2XD yXyXyX4X9XoX}.+X'.J %X%X}.yX",
"yXyXyXyXyXyXyXyXyXyXyXyXyXyXyXyXyXyXyXyXyXyXyXyXyXyXyXyXyXyXyXyXyXyXOX[.$X9XqX4XwX'.<   , E %X1XeXoXyXyXD [.2X[.%X{.`.%X`.$X5X$X",
"yXyXyXyXyXyXyXyXyXyXyXyXyXyXyXyXyXyXyXyXyXyXyXyXyXyXyXyXyXyXyXyXyXyXH R 4XeX0X2X4X4X'.U W %X1XwXqX`.yXyXH 3XrX2XwX0X4X0X{.2X2X[.",
"yXyXyXyXyXyXyXyXyXyXyXyXyXyXyXyXyXyXyXyXyXyXyXyXyXyXyXyXyXyXyXyXyXyXyXS `.5XeXeXeXwXqX1X%XqXwX9XoXyXyX=.@.E 5XwX0X1X6X0X9XoX2X'.",
"yXyXyXyXyXyXyXyXyXyXyXyXyXyXyXyXyXyXyXyXyXyXyXyXyXyXyXyXyXyXyXyXyXyXyXyXH '.oX2X6X2X9XwX0X2XW yXyXyXyXM._.z.b R '.F W 1X2XJ yXyX",
"yXyXyXyXyXyXyXyXyXyXyXyXyXyXyXyXyXyXyXyXyXyXyXyXyXyXyXyXyXyXyXyXyXyXyXyXyXyXyXj U R }.&X&XOX&Xe w j *.B @.m.*.yXyXZ M.=.&.yXyXyX",
"yXyXyXyXyXyXyXyXyXyXyXyXyXyXyXyXyXyXyXyXyXyXyXyXyXyXyXyXyXyXyXyXyXyXyXyXyXyXyXO : B.J.b r !.6XoXj l D./.m.g yXyXl z z./.E.yXyXyX",
"yXyXyXyXyXyXyXyXyXyXyXyXyXyXyXyXyXyXyXyXyXyXyXyXyXyXyXyXyXyXyXyXyXyXyXyXyXyXyXyX@.U.J.> O.G.1.1.b = n *.C v b yXk D.b.B w yXyXyX",
"yXyXyXyXyXyXyXyXyXyXyXyXyXyXyXyXyXyXyXyXyXyXyXyXyXyXyXyXyXyXyXyXyXyXyXyXyXyXyXyXb._.B.; L._.n.@.Y.B x N.*.c W.=.1 n G.C yXyXyXyX",
"yXyXyXyXyXyXyXyXyXyXyXyXyXyXyXyXyXyXyXyXyXyXyXyXyXyXyXyXyXyXyXyXyXyXyXyXyXyXyXyXz /.O.8 D.L.D.s L.P.g = a ; W.x.g z.h yXyXyXyXyX",
"yXyXyXyXyXyXyXyXyXyXyXyXyXyXyXyXyXyXyXyXyXyXyXyXyXyXyXyXyXyXyXyXyXyXyXyXyXyXyXyX% g O.N -.-.!.U v Z.C . yXyXC h 8 N.p yXyXyXyXyX",
"yXyXyXyXyXyXyXyXyXyXyXyXyXyXyXyXyXyXyXyXyXyXyXyXyXyXyXyXyXyXyXyXyXyXyXyXyXyXyXyXyXM z.-.S.J.4.5X1X@X3 , yXyXyXyXyX1 yXyXyXyXyXyX",
"yXyXyXyXyXyXyXyXyXyXyXyXyXyXyXyXyXyXyXyXyXyXyXyXyXyXyXyXyXyXyXyXyXyXyXyXyXyXyXyXyXw b.L.Y.I.XXwXeXeX$X2 yXyXyXyXyXyXyXyXyXyXyXyX",
"yXyXyXyXyXyXyXyXyXyXyXyXyXyX+ yXyXyX. yXyXyXyXyXyXyXyXyXyXyXyXyXyXyXyXyXyXyXyXyXyX% M O.N *.P 5XeXeX4X4 yXyXyXyXyXyXyXyXyXyXyXyX",
"yXyXyXyXyXyXyXyXyXyX. yXyXl.> yX#.N yXyXyXyXyXyXyXyXyXyXyXyXyXyXyXyXyXyXyXyXyXyXyXyXB.Y.K.D.$.$XeXeXwXR yXyXyXyXyXyXyXyXyXyXyXyX",
"yXyXyXyXyXyXyXyXyXyXf yXv.Z.1 N H.f yXf > yXyXyXyXyXyXyXyXyXyXyXyXyXyXyXyXyXyXyXyXyX-.P.V.n.n ].eXeXeXE yXyXyXyXyXyXyXyXyXyXyXyX",
"yXyXyXyXyXyXyXyXyXA.A.x .X6X{.U R.#X>X X4 yXyXyXyXyXyXyXyXyXyXyXyXyXyXyXyXyXyXyXyXyXc I.J.G.G.Q.9XeXeX{.yXyXyXyXyXyXyXyXyXyXyXyX",
"yXyXyXyXyXyXyXyXZ.v._.*XrXeX2X'.T '.oXwX%X4 yXyXyX[.{.yXyXyXyXyXyXyXyXyXyXyXyXyXyXyX8 G.U.U.U.W.2XeXeX%X@ yXyXyXyXyXyXyXyXyXyXyX",
"yXT $X4XOX1X{.yXA.(.tX2X2XqX9X1X@XeX$X=X5X#XZ  XOX9X5X%X[.yXyXyXyXyXyXyXyXyXyXyXyXyX+ z x x +.n +XeXeX9X3 yXyXyXyXyXyXyXyXyXyXyX",
"S '.2XeX0X|.yXyXZ.:XeXwX1X%X2X2X1X1X%X3XwXwX^./.,X9X5X2X+XyXyXyXyXyXyXyXyXyXyXyXyXyXyXn.D.$.%.b.&XeXeXwXR yXyXyXyXyXyXyXyXyXyXyX",
"yX$X@XyXs.OX!.x.I.:XeXwX5XoXH @ . . . , R qXXX^.&XyXyXyXyXyXyXyXyXyXyXyXyXyXyXyXyXyXyX-.U.U.U.J.>XeXeXeX'.yXyXyXyXyXyXyXyXyXyXyX",
"yXyXyXyXyXyX[.}.W.Q.qXwXT X @ @ <         E 3X|.yXyXyXyXyXyXyXyXyXyXyXyXyXyXyXyXyXyXyXz %.m m x ! eXeXeXOXyXyXyXyXyXyXyXyXyXyXyX",
"yXyXyXyXyXyXyX>.[ y ! R   3 6X5XqXH       W 3Xq yXyXyXyXyXyXyXyXyXyXyXyXyXyXyXyXyXyXyX*.P.F.F.G.*XeXeXeX1XyXyXyXyXyXyXyXyXyXyXyX",
"yXyXyXyXyXyXyX^ ) _ ) &   < $X9X2X3     2 &XL & yXyXyXyXyXyXyXyXyXyXyXyXyXyXyXyXyXyXyXa D.Y.U.U.).wXeXeX6X3 yXyXyXyXyXyXyXyXyXyX",
"yXyXyXyXyXyXyX% t / ] _ 6 X   < 2 < < T +X2.yXyXyXyXyXyXyXyXyXyXyXyXyXyXyXyXyXyXyXyXyX8 a s %.S.~.wXeXeX9XD yXyXyXyXyXyXyXyXyXyX",
"yXyXyXyXyXyXyXyXyXyX7 ) ' ^ q {.5X4X&X3.u yXyXyXyXyXyXyXyXyXyXyXyXyXyXyXyXyXyXyXyXyXyX+.L.V.$.O.P qXeXeX0XD yXyXyXyXyXyXyXyXyXyX",
"yXyXyXyXyXyXyXyXyXyXyX5 ^ _ ] 0.2.L 0 o yXyXyXyXyXyXyXyXyXyXyXyXyXyXyXyXyXyXyXyXyXyXyXM.U.J.M.B k qXeXeXwXD yXyXyXyXyXyXyXyXyXyX",
"yXyXyXyXyXyXyXyXyXyXyXyX# / ' ` _ _ ) # yXyXyXyXyXyXyXyXyXyXyXg yXyXyXyXyXyXyXyXyXyXyXS.U.P.J.F.Q.0XeXeXeXD yXyXyXyXyXyXyXyXyXyX",
"yXyXyXyXyXyXyXyXyXyXyXyXyX0 ` ] { | { y yXyXyXyXyXyXyXyXyXa D.=.-.yXyXyXyXyXyXyXyXyXyXp %.C.V.S.<.OXeXeXwXD yXyXyXyXyXyXyXyXyXyX",
"yXyXyXyXyXyXyXyXyXyXyXyXyX5 ) { ] ] } _ 6 yXyXyXyXyXyX- z ; N z m.; yXyXyXyXyXyXyXyXyXz.%.$.c.C.z.OXeXeX4X< yXyXyXyXyXyXyXyXyXyX",
"yXyXyXyXyXyXyXyXyXyXyXyXyXyX/ { ` ` ` ` ^ yXyXyXyXyX. O n.g yXyX= d g yXyXyXyXyXyXyXs L.D.$.m d 9 G 6X1XY % yXyXyXyXyXyXyXyXyXyX",
"yXyXyXyXyXyXyXyXyXyXyXyXyXyX7 { | ` ` } [ t yXyXyXO +.n = yXyXyXg B.a yXyXyXyXyXyXh F.D.C.F.F.S.n.O.x.l w + yXyXyXyXyXyXyXyXyXyX",
"yXyXyXyXyXyXyXyXyXyXyXyXyXyX@ # * 5 q r r % yXyXyXX n $.yXyXyXyXyX% 8 p yXyXyXyXyXa B.+.m c.c.n.C.s N @.M - yXyXyXyXyXyXyXyXyXyX",
"yXyXyXyXyXyXyXyXyXyXyXyXyXyX# o # # X @ 5 7 K R @     . yXyXyXyXyXyXc.b.X yXyXyX= S.@.1 Y C Z 1.~.j Q |.$X1X1X[.yXyXyXyXyXyXyXyX",
"yXyXyXyXyXyXyXyXyXyXyXyXyX5.( u >.2.@X4X+XT 9X9X3 . @ , yX2 yXyXyXyX8 8 8 ; + $.x C  X4XeX9X5XqX0X1X5X2X&XwXeXwXW yXyXyXyXyXyXyX",
"yXyXyXyXyXyXyXyXyXyXyXyX3 3 W $X4X9X0X4X[.H }.J 4 J H S 3 , @ @ , yXX   $.n.9 D.m T eXeXeXeXeXeXeXeXeXeX$X}.wXOX< % yXyXyXyXyXyX",
"yXyXyXyXyXyXyXyXyXyXyXyXyXyXyX3 S H D < . , 3 H W '.W R J J T H D yXyXX $ N 8 O X 2 %X0XwXeXeXeXeXwX%X+XH S R 3 , yXyXyXyXyXyXyX",
"yXyXyXyXyXyXyXyXyXyXyXyXyXyXyXyXyXyXyXyXyXyXyXyXyXyXyXyXyXyXyXyXyXyXyXyXyXyXyXyXyXyXyXR `.OX%X1X+X`.H 3 , < yXyXyXyXyXyXyXyXyXyX"
};
