/* XPM */
static char *result[] = {
/* columns rows colors chars-per-pixel */
"64 64 242 2 ",
"   c #2D2B32",
".  c #36341D",
"X  c #3D493E",
"o  c #1E2355",
"O  c #383846",
"+  c #363552",
"@  c #2A2D4A",
"#  c #141B73",
"$  c #373A69",
"%  c #282A7A",
"&  c #2B357C",
"*  c #373879",
"=  c #2D326B",
"-  c #181C57",
";  c #433B45",
":  c #473F79",
">  c #3A4458",
",  c #3D4278",
"<  c #3C426A",
"1  c #48474B",
"2  c #464556",
"3  c #58555D",
"4  c #514D54",
"5  c #49476A",
"6  c #5A5668",
"7  c #464779",
"8  c #4E5274",
"9  c #535473",
"0  c #675B66",
"q  c #5D6774",
"w  c #746967",
"e  c #696A76",
"r  c #736E70",
"t  c #635D5D",
"y  c #837870",
"u  c #1A2688",
"i  c #282B88",
"p  c #2B3488",
"a  c #333A84",
"s  c #363987",
"d  c #2C2C93",
"f  c #2B3598",
"g  c #373997",
"h  c #312C90",
"j  c #2E37A3",
"k  c #433F98",
"l  c #443A86",
"z  c #433EAB",
"x  c #394387",
"c  c #3B4395",
"v  c #3C449D",
"b  c #3C47A5",
"n  c #3E4CB1",
"m  c #484988",
"M  c #4A5388",
"N  c #55578B",
"B  c #4B4C94",
"V  c #464897",
"C  c #565699",
"Z  c #4E5297",
"A  c #625B89",
"S  c #5E638F",
"D  c #706C86",
"F  c #767685",
"G  c #656899",
"H  c #797999",
"J  c #696C86",
"K  c #4245A3",
"L  c #4849A9",
"P  c #4D53AB",
"I  c #4654A7",
"U  c #5455AC",
"Y  c #5859A8",
"T  c #4848B6",
"R  c #4B54B6",
"E  c #545CBC",
"W  c #5758B6",
"Q  c #534EAF",
"!  c #625EB9",
"~  c #605FA3",
"^  c #5A65A7",
"/  c #5563BC",
"(  c #5B61B8",
")  c #4D62AD",
"_  c #6363AD",
"`  c #6868A8",
"'  c #6B72A9",
"]  c #7878A9",
"[  c #6463B4",
"{  c #6364BB",
"}  c #6B6BBC",
"|  c #686AB7",
" . c #6C74B7",
".. c #7B7BBC",
"X. c #7577B9",
"o. c #736DB4",
"O. c #4B57C7",
"+. c #585BC4",
"@. c #4D52CE",
"#. c #615BC7",
"$. c #5A64C5",
"%. c #5F71CE",
"&. c #6C6BC4",
"*. c #6769C8",
"=. c #716ECC",
"-. c #6C74C5",
";. c #6A77CB",
":. c #747AC5",
">. c #7C7CC4",
",. c #797BCC",
"<. c #7575C8",
"1. c #6769D4",
"2. c #746AD6",
"3. c #6B79D8",
"4. c #7B7BD5",
"5. c #7778D8",
"6. c #6F72E9",
"7. c #807E8B",
"8. c #837BBA",
"9. c #897DAA",
"0. c #847DC8",
"q. c #817EDC",
"w. c #798297",
"e. c #7987B5",
"r. c #7984C8",
"t. c #7986D8",
"y. c #6E80DB",
"u. c #7A87EB",
"i. c #7B89EF",
"p. c #858689",
"a. c #898A99",
"s. c #8F9298",
"d. c #94928B",
"f. c #A9A29C",
"g. c #898AAA",
"h. c #9796A7",
"j. c #8688B7",
"k. c #8A93B3",
"l. c #9898B7",
"z. c #938BB9",
"x. c #A8A4A7",
"c. c #B3ACA6",
"v. c #A5A8BB",
"b. c #BAB7B9",
"n. c #B1B4B0",
"m. c #A2A0AB",
"M. c #C4BEBD",
"N. c #C5C3B5",
"B. c #8483CC",
"V. c #8788C8",
"C. c #928BC9",
"Z. c #8C92C9",
"A. c #9393CB",
"S. c #9799C7",
"D. c #8385D5",
"F. c #8B8BD3",
"G. c #8382DA",
"H. c #8C8BDE",
"J. c #868ADA",
"K. c #938ED9",
"L. c #8A93D6",
"P. c #9D9BD3",
"I. c #9493DB",
"U. c #9797D7",
"Y. c #A29CCA",
"T. c #A39DD5",
"R. c #A79CD9",
"E. c #97A4CB",
"W. c #99A2DA",
"Q. c #A8A9C9",
"!. c #ACB2CA",
"~. c #B7B7C8",
"^. c #A8A7D9",
"/. c #B2ADDA",
"(. c #A9B6DA",
"). c #B7B7DA",
"_. c #B0ABCC",
"`. c #868CE4",
"'. c #948EE3",
"]. c #8D94E3",
"[. c #8596E7",
"{. c #9B9DE4",
"}. c #9698E8",
"|. c #858BF4",
" X c #8A96F5",
".X c #979AF4",
"XX c #A29CE8",
"oX c #A09CF7",
"OX c #9EA2EB",
"+X c #99A6E8",
"@X c #98A6F5",
"#X c #8CA3F3",
"$X c #AAA5E2",
"%X c #A8A9E7",
"&X c #B1ACE7",
"*X c #A8B5E6",
"=X c #B3B3E6",
"-X c #B3B3EB",
";X c #BCBCEB",
":X c #B8B7E7",
">X c #A6A9F7",
",X c #B4ACF6",
"<X c #A9B6F7",
"1X c #B7B7F7",
"2X c #C0B9DA",
"3X c #C2BBE8",
"4X c #C5BDF4",
"5X c #BCC3D9",
"6X c #BDC3C8",
"7X c #BCC3E8",
"8X c #B8C4F7",
"9X c #B0C8F1",
"0X c #C9C5C8",
"qX c #C4C4DA",
"wX c #CAC9D7",
"eX c #D7D8D6",
"rX c #CFD0D2",
"tX c #C3C4E4",
"yX c #C2C5EC",
"uX c #CACBED",
"iX c #C7C9E7",
"pX c #CBD4EB",
"aX c #D4D4EB",
"sX c #D6D8E7",
"dX c #C3C3F2",
"fX c #CCCDF3",
"gX c #C7CAFB",
"hX c #D1CEF9",
"jX c #CBD6F9",
"kX c #DBDBF4",
"lX c #D5D8F9",
"zX c #E1DDF9",
"xX c #E0D7E0",
"cX c #D9E3E9",
"vX c #DDE3FA",
"bX c #C5E1FE",
"nX c #E4E5E6",
"mX c #E5E7F7",
"MX c #FAF9F9",
"NX c #EFF2F7",
"BX c #E0DEDF",
"VX c None",
/* pixels */
"VXVXVXVXVXVXVXVXVXVXVXVXVXVXVXVXVXVXVXVXVXVXVXVXVXVXVXVXVXVXVXVXVXVXVXVXVXVXVXVXVXVXVXVXVXVXVXVXVXVXVXVXVXVXVXVXVXVXVXVXVXVXVXVX",
"VXVXVXVXVXVXVXVXVXVXVXVXVXVXVXVXVXVXVXVXVXVXVXVXVXVXVXVXVXVXVXVXVXVXVXVXVXVXVXVXVXVXVXVXVXVXVXVXVXVXVXVXVXVXVXVXVXVXVXVXVXVXVXVX",
"VXVXVXVXVXVXVXVXVXVXVXVXVXVXVXVXVXVXVXVXVXVXVXVXVXVXVXVXVXVXVXVXVXVXVXVXVXVXVXVXVXVXVXVXVXVXVXVXVXVXVXVXVXVXVXVXVXVXVXVXVXVXVXVX",
"VXVXVXVXVXVXVXVXVXVXVXVXVXVXVXVXVXVXVXVXVXVXVXVXvXvXhXkXmXkX5XfXkXsXVXVXVXVXVXVXVXVXVXVXVXVXVXVXVXVXVXVXVXVXVXVXVXVXVXVXVXVXVXVX",
"VXVXVXVXVXVXVXVXVXVXVXVXVXVXVXVXVXVXVXVXVXVXsXzXgX7X=X:X^.7X+X1X-XdXsXVXVXVXVXVXVXVXVXVXVXVXVXVXVXVXVXVXVXVXVXVXVXVXVXVXVXVXVXVX",
"VXVXVXVXVXVXVXVXVXVXVXVXVXVXVXVXVXVXVXVXVXqXlXgX{.j.P.g.{ D.J.` &.U.gXsXVXVXVXVXVXVXVXVXVXVXVXVXVXVXVXVXVXVXVXVXVXVXVXVXVXVXVXVX",
"VXVXVXVXVXVXVXVXVXVXVXVXVXVXVXVXVXVXVXfXyX:X8X+X^.yXyXW.} >X.X].3.} 1X=XfXVXVXVXVXVXVXVXVXVXVXVXVXVXVXVXVXVXVXVXVXVXVXVXVXVXVXVX",
"VXVXVXVXVXVXVXVXVXVXVXVXVXVXVXVXVXVXfXdX1X<X}.].pXvXhXL.X.<X}.|.J.H.H.>.1XuXVXVXVXVXVXVXVXVXVXVXVXVXVXVXVXVXVXVXVXVXVXVXVXVXVXVX",
"VXVXVXVXVXVXVXVXVXVXVXVXVXVXVXVXVX8X.X@X1XU.8X*XiXgX$X&X|.q.! #.[ L.V.,...vXvXVXVXVXVXVXVXVXVXVXVXVXVXVXVXVXVXVXVXVXVXVXVXVXVXVX",
"VXVXVXVXVXVXVXVXVXVXVXVXVXVXVXVXlX;XL.%X-X^.hX8X}.4.].`.2.W ! o.^ ,.U.W.S.yX;XlXmXwXaXiXVXVXVXVXVXVXVXVXVXVXVXVXVXVXVXVXVXVXVXVX",
"VXVXVXVXVXVXVXVXVXVXVXVXVXVXmXmXsXaX5XpXrXeX5X}.1.*.1.j T W ! B N [ r.' L.Z.XX:XaXfXdXuXVXVXVXVXVXVXVXVXVXVXVXVXVXVXVXVXVXVXVXVX",
"VXVXVXVXVXVXVXVXVXVXVXVXVXyXyXlXjX8X+X9X7X!.A.R R J. Xq.6.z L L 7 _  .[ :.J.B.7XvX7XdX-XfXVXVXVXVXVXVXVXVXVXVXVXVXVXVXVXVXVXVXVX",
"VXVXVXVXVXVXVXVXVXVXVXVXuXgXlX<X@X[.<X<X@Xu.u.v T $.3.5.2.5.H.V V.>X>.4.`.%XOXL.<XJ.B.L.%X;XuXyXuXVXVXVXVXVXVXVXVXVXVXVXVXVXVXVX",
"VXVXVXVXVXVXVXVXVXVXVXVXlXgX7XE.t.#X<X*X[.i.i.n g b Y { =.D.H.r..X.X<X.X].U.J.} U W ^ ] _.W.>X,X;XpXVXVXVXVXVXVXVXVXVXVXVXVXVXVX",
"VXVXVXVXVXVXVXVXVXVXVXVXuXjXpXg.y.t.[.i.#X#XE j Z ] ' o._ L K ,.V 4.OX%XL.1X`.v :.U C g.yX-X>X,X1XyXsXVXVXVXVXVXVXVXVXVXVXVXVXVX",
"VXVXVXVXVXVXVXVXVXVXVX0XjXgXsXl.t.t.+X/ %.y./ b S a.G ` 7 g d i s { >X1X>X<X3.,.t.>X'.F.1X{.}.:.%X:XiXVXVXVXVXVXVXVXVXVXVXVXVXVX",
"VXVXVXVXVXVXVXVX9X<X<X*X@X8X*X3.+X@XOXY i i p c !.d.G Z s : g = m | OXjXlXyXU.H.&.<.XX}.`.H.&.} :.%X7XsXVXVXVXVXVXVXVXVXVXVXVXVX",
"VXVXVXVXVXVXVXVX7X-.i.r.e.3.3.y.;.P g s c V C G x.w.U = C < k Y ` H.G.%X=X,XXXXXK.{ 5.U ,.| | } ,.V.;XaXsXVXVXVXVXVXVXVXVXVXVXVX",
"VXVXVXVXVXVXVXVXcX~.l.E.w.e.^ r.B a s g Z !.n.!.v.F G q [ M 8.X...q.*.D.B.'.1XA.XX=.L h s C C } } B.$X;X3XzXVXVXVXVXVXVXVXVXVXVX",
"VXVXVXVXVXVXmXtXhXtXx.!.*X(.v.,.V...^ N 8 v.l.' A.P.H 0 G ,.XX,X$X'.=.s B ! q.W.U.Q h h _ o.K.8.o.K.,X,X3X4XmXwXVXVXVXVXVXVXVXVX",
"VXVXVXVXwX7X8XjX<X[.*X9X<XL.(.i.+X>.J.G M o...Z.8X1X&.i 2..X.X=XhX.XY ] %XV P | { { { -.G.>XgX;XU.XX0.0.XX$X/.3X2XzXVXVXVXVXVXVX",
"VXVXVXVXVXpXjX@X*Xr.$.[.e.Z.*X*X<Xt.t.;.{ 5.>XuX>Xe.OX*.H.&.W D...1X{.gXvX..U W $.=.-.U t.,.K.C.XX&X0.0.K.0.K.3XXX^.kXVXVXVXVXVX",
"VXVXVXVXVXmX7X*X~.P.R $.^ e.#X#Xu.}.r.-.c ( <X<X@XJ.<X1X,Xt.L %XF.,.U J.&X;XI.P y.;.( c Y s m | '.F.B.I.K.B...0.` R.uXsXVXVXVXVX",
"VXVXVXVXVXVXsXmXcX+X[.L.|. Xy.O.$.O.6.O.p ) y.u.5.} J. X%Xr.U 5.,.p d g 0.vX' K ;.i.1.c * * k ! q.H.B.U.I.0.! 0.K.-XfXsXVXVXVXVX",
"VXVXVXVXVXwXvXbXpXW.r.i.t.#XO.u b b v I x Y O.Y c I g | { i V C a % l s ,.<X5.P ) *.I L b c U m Y 4.,X-X:XR.8.C.A.,XfXkXkXVXVXVX",
"VXVXVXVXrXpXjX8XjX+XL.t.b & p o m T W X.| k.l. .M < x = a K Y   x s 8 ~ U ( J.' M ` p V ,.^ 8.[ | q.,XY._.3XY.).Y.K.;XhXzXVXVXVX",
"VXVXVXVXvXbXjX8X<Xu.i.i.O.# & , V V x _ F.S...p f R , @ $ N N   5 m N M Y :.} ]  .{.! { B.C.Y.&Xj.o.H.0.o.8.&X:X4X$XF.gXhXVXVXVX",
"VXVXVXjX<X>X@X<X^ x ) $.u x & & f - # W ^ V R 6.f 6.v = N 8.4 @ + , m ` &.5.U 9 ].D.D.H.'.T.3X2X^.C.0.} o.C.hX/.Y.uXK.P.kX0XVXVX",
"VXVXVX8X+X@XL.#X^ e.r.i.y.) e.> p f n n f f E y.1.I , M M 1.9 . X M L *.4.2.5.B { :._ =.2.q.XXR.3Xz.K.<.<.C.3X_.aXwX-XC.iXwXVXVX",
"VXVXVX7X8X<X<X8X#X#Xi.y.y.i.i.e.x f L x ' X.<.3.) v c C m @.+ > G  .*.x | 1.#.Q h L c K T Q ! I././.B.! K.1X2Xz.wXcXV.<.,XzXVXVX",
"VXVXVXwXvX;X+X<X%.) O. .e.y.i.i.r.) ) m D N B +.a n 6.P z ! + Y y.y.u. .C % s z i # # Q z k h U >.:.} `.{.).rX~.z.2X3X>.}./.VXVX",
"VXVXVXnXmX8X`.i.y.I n e.w.b ) v R y.u.y._ C 7 V g s n g Q 9 B 6.O.I R / Z k : s N V h i ! k g j j u j 6.4.,XfXuX2XqXrX_.-XVXVXVX",
"VXVXVXsX+X X#Xr.J.r.@X#Xx # i & v f W e.] ~ ^ s 5 m Q O.6.A O +.I , i i a Q $ e 0.Q q.#.F.<.1.&.$.b f E +XyXA.U.{.;X3X_.MXVXVXVX",
"VXVXcX9X@X}.-./ L.8X9X9X$.G N M $. . .| q.u.Q s g 9 ] Y W 6 ; 2 W ^ G Z : ^ 9 N k _ '.2.G.F.g W $.1.R 3.].I.Z Q H.{ }.3XVXVXVXVX",
"VXVXvX7X@X:. .S.<X9X9Xi.:.0Xh.F X.E.+X-.6.1.@.@.T : ; C K.; H e N G ] Y ; o.m &.V <.! #.4.Q d Q R / -.].`.4.U T U ^.nXVXVXVXVXVX",
"VXVXlX%Xt.!.E.;.t.y.;.c ] 6XsXl.5X+X].%XG o.L ^ G h.: + 6 . l *.E W P k $ l N A _ ! z h Q h i z +.*.U.%Xt.].<.E W G.P.VXVXVXVXVX",
"VXVXVXqX(.yXW.) C x % < D !.n._.rX:X<XlXwXS L.F.(.5XG J @ ; % +.1.*.*.U ~ : : : * % h # h V s h 1.*.U.=X}.+XX.U 1.0.qXVXVXVXVXVX",
"VXVXVXVXrXNX9X#X/ q q y w.).cXv.F w.5Xb.c.1 J 5XG.` Y ' ! : G j.Q.+ j.C._ ; ' ' m ~ C.B * x a % +.5.D.X.{..X<.-.0.$XuXVXVXVXVXVX",
"VXVXVXVXNXbX8X+Xe.w.b.N.f.wXeXb.k.k.e.w.l.Q.D 5 5 l B K.e.- g.E.T.p.w mX9.s.tXiXs.z./.H j.M 7 % g K ( Z B =.}.B.oX'.1XVXVXVXVXVX",
"VXVXVXVXmXpX9X*X(.6Xb.x.n.b.c.~.I.e.' Z.Z.VXVXVXe 5 1 @   @ l.sXo.2Xt x.r N.NXBX1 a.a.l.3X8 G _ s c W -.' & P r.T.&X&XqXVXVXVXVX",
"VXVXVXcX8XbX9X7XcX9XVXVXVXVXVXmXVXVXVXVXVXVXVXVXVXVXVXVXF o l./.K I.7.  p.MXrXy f.BXeXwXa.V.Z.V Y W. .Y S.j.[ C.T./.xXVXVXVXVXVX",
"VXVXVXlX9X9XE.(.rXVXVXVXVXVXVXVXVXVXVXVXVXVXVXVXVXVXVXVXVX  g.fXV.j.0 6 BXeXr 2XMX0X2Xs.tX$XD. .S.yX:X] j.l.&X4X,X4XiXVXVXVXVXVX",
"VXVXVXVX9XW.E.7XeXVXVXVXVXVXVXVXVXVXVXVXVXVXVXVXVXVXVXVXVX2 7.NXaXwXt 2XNX1 3 p.F p.d.MXsXU.X.A.vXQ.Y.g.R.3XiX,XzXzXVXVXVXVXVXVX",
"VXVXVXVXVXk.E.!.VXVXVXVXVXVXVXVXVXVXVXVXVXVXVXVXVXVXVXVXVX4 0XwXNX0Xw MX4 t VXVXVXVXVXVXVXv.H nXb.v.s.s.l.qXsX&X2XmXnXVXVXVXVXVX",
"VXVXVXVXVXVXVXVXVXVXVXVXVXVXVXVXVXVXVXVXVXVXVXVXVXVXVXVXVXw M.BXnXf.w e 4 VXVXVXVXVXVXVXVXVXVXh.Q.sXqXl.9.g.m.z.0./.fXVXVXVXVXVX",
"VXVXVXVXVXVXVXVXVXVXVXVXVXVXVXVXVXVXVXVXVXVXVXVXVXVXVXVXVXw M.NXNXD   6 VXVXVXVXVXVXVXVXVXVXVXS.A.S.&X=X/././.qXzX2XaXVXVXVXVXVX",
"VXVXVXVXVXVXVXVXVXVXVXVXVXVXVXVXVXVXVXVXVXVXVXVXVXVXVXVXVXy 0XnXsX3 ; VXVXVXVXVXVXVXVXVXVXVXVXVXl.^.T.VXVXVXVXVXVXVXVXVXVXVXVXVX",
"VXVXVXVXVXVXVXVXVXVXVXVXVXVXVXVXVXVXVXVXVXVXVXVXVXVXVXVXVXy c.MXv.@ VXVXVXVXVXVXVXVXVXVXVXVXVXVXVXVXVXVXVXVXVXVXVXVXVXVXVXVXVXVX",
"VXVXVXVXVXVXVXVXVXVXVXVXVXVXVXVXVXVXVXVXVXVXVXVXVXVXVXVXVXw M.wX8 D VXVXVXVXVXVXVXVXVXVXVXVXVXVXVXVXVXVXVXVXVXVXVXVXVXVXVXVXVXVX",
"VXVXVXVXVXVXVXVXVXVXVXVXVXVXVXVXVXVXVXVXVXVXVXVXVXVXVXVXVXy x.7.; rXVXVXVXVXVXVXVXVXVXVXVXVXVXVXVXVXVXVXVXVXVXVXVXVXVXVXVXVXVXVX",
"VXVXVXVXVXVXVXVXVXVXVXVXVXVXVXVXVXVXVXVXVXVXVXVXVXVXVXVXVXM.;   h.VXVXVXVXVXVXVXVXVXVXVXVXVXVXVXVXVXVXVXVXVXVXVXVXVXVXVXVXVXVXVX",
"VXVXVXVXVXVXVXVXVXVXVXVXVXVXVXVXVXVXVXVXVXVXVXVXVXVXVXVXVXVX4 ; N.VXVXVXVXVXVXVXVXVXVXVXVXVXVXVXVXVXVXVXVXVXVXVXVXVXVXVXVXVXVXVX",
"VXVXVXVXVXVXVXVXVXVXVXVXVXVXVXVXVXVXVXVXVXVXVXVXVXVXVXVXVXVXx.0 b.VXVXVXVXVXVXVXVXVXVXVXVXVXVXVXVXVXVXVXVXVXVXVXVXVXVXVXVXVXVXVX",
"VXVXVXVXVXVXVXVXVXVXVXVXVXVXVXVXVXVXVXVXVXVXVXVXVXVXVXVXVXVXnXr N.VXVXVXVXVXVXVXVXVXVXVXVXVXVXVXVXVXVXVXVXVXVXVXVXVXVXVXVXVXVXVX",
"VXVXVXVXVXVXVXVXVXVXVXVXVXVXVXVXVXVXVXVXVXVXVXVXVXVXVXVXVXVX0X0 c.VXVXVXVXVXVXVXVXVXVXVXVXVXVXVXVXVXVXVXVXVXVXVXVXVXVXVXVXVXVXVX",
"VXVXVXVXVXVXVXVXVXVXVXVXVXVXVXVXVXVXVXVXVXVXVXVXVXVXVXVXVXVXrXw c.VXVXVXVXVXVXVXVXVXVXVXVXVXVXVXVXVXVXVXVXVXVXVXVXVXVXVXVXVXVXVX",
"VXVXVXVXVXVXVXVXVXVXVXVXVXVXVXVXVXVXVXVXVXVXVXVXVXVXVXVXVXVXxX0 c.VXVXVXVXVXVXVXVXVXVXVXVXVXVXVXVXVXVXVXVXVXVXVXVXVXVXVXVXVXVXVX",
"VXVXVXVXVXVXVXVXVXVXVXVXVXVXVXVXVXVXVXVXVXVXVXVXVXVXVXVXVXVXM.4 c.VXVXVXVXVXVXVXVXVXVXVXVXVXVXVXVXVXVXVXVXVXVXVXVXVXVXVXVXVXVXVX",
"VXVXVXVXVXVXVXVXVXVXVXVXVXVXVXVXVXVXVXVXVXVXVXVXVXVXVXVXVXVX2X; d.0XVXVXVXVXVXVXVXVXVXVXVXVXVXVXVXVXVXVXVXVXVXVXVXVXVXVXVXVXVXVX",
"VXVXVXVXVXVXVXVXVXVXVXVXVXVXVXVXVXVXVXVXVXVXVXVXVXVXVXVXVXVXD ; t 0 VXVXVXVXVXVXVXVXVXVXVXVXVXVXVXVXVXVXVXVXVXVXVXVXVXVXVXVXVXVX",
"VXVXVXVXVXVXVXVXVXVXVXVXVXiXuXuXfX4X:X3X;X^.&X:X&X=X^.$XP.C.8.8.9.] ] ^.R.R.T.^.&X$X$X$X/.&X4X4XiXiXVXVXVXVXVXVXVXVXVXVXVXVXVXVX",
"VXVXVXVXVXVXVXVXVXVXVXVXVXVXVXVXVXVXVXVXVXVXVXVXVXVXVXVXVXVXVXVXVXVXVXVXVXVXVXVXVXVXVXVXVXVXVXVXVXVXVXVXVXVXVXVXVXVXVXVXVXVXVXVX",
"VXVXVXVXVXVXVXVXVXVXVXVXVXVXVXVXVXVXVXVXVXVXVXVXVXVXVXVXVXVXVXVXVXVXVXVXVXVXVXVXVXVXVXVXVXVXVXVXVXVXVXVXVXVXVXVXVXVXVXVXVXVXVXVX",
"VXVXVXVXVXVXVXVXVXVXVXVXVXVXVXVXVXVXVXVXVXVXVXVXVXVXVXVXVXVXVXVXVXVXVXVXVXVXVXVXVXVXVXVXVXVXVXVXVXVXVXVXVXVXVXVXVXVXVXVXVXVXVXVX"
};
